<?xml version="1.0" encoding="UTF-8" standalone="no"?>
<!-- Created with Inkscape (http://www.inkscape.org/) -->

<svg
   xmlns:dc="http://purl.org/dc/elements/1.1/"
   xmlns:cc="http://creativecommons.org/ns#"
   xmlns:rdf="http://www.w3.org/1999/02/22-rdf-syntax-ns#"
   xmlns:svg="http://www.w3.org/2000/svg"
   xmlns="http://www.w3.org/2000/svg"
   xmlns:sodipodi="http://sodipodi.sourceforge.net/DTD/sodipodi-0.dtd"
   xmlns:inkscape="http://www.inkscape.org/namespaces/inkscape"
   width="137.04897mm"
   height="107.3374mm"
   viewBox="0 0 137.04897 107.3374"
   version="1.1"
   id="svg18524"
   inkscape:version="0.92.3 (2405546, 2018-03-11)"
   sodipodi:docname="drawing.svg">
  <defs
     id="defs18518" />
  <sodipodi:namedview
     id="base"
     pagecolor="#ffffff"
     bordercolor="#666666"
     borderopacity="1.0"
     inkscape:pageopacity="0.0"
     inkscape:pageshadow="2"
     inkscape:zoom="0.35"
     inkscape:cx="-228.15261"
     inkscape:cy="122.84226"
     inkscape:document-units="mm"
     inkscape:current-layer="layer1"
     showgrid="false"
     fit-margin-top="0"
     fit-margin-left="0"
     fit-margin-right="0"
     fit-margin-bottom="0"
     inkscape:window-width="1920"
     inkscape:window-height="1017"
     inkscape:window-x="-8"
     inkscape:window-y="-8"
     inkscape:window-maximized="1" />
  <metadata
     id="metadata18521">
    <rdf:RDF>
      <cc:Work
         rdf:about="">
        <dc:format>image/svg+xml</dc:format>
        <dc:type
           rdf:resource="http://purl.org/dc/dcmitype/StillImage" />
        <dc:title></dc:title>
      </cc:Work>
    </rdf:RDF>
  </metadata>
  <g
     inkscape:label="Layer 1"
     inkscape:groupmode="layer"
     id="layer1"
     transform="translate(-43.356449,-73.997943)">
    <g
       id="g18285"
       transform="matrix(0.26458333,0,0,0.26458333,2295.9015,1840.8006)">
      <g
         transform="matrix(-0.98152235,-0.19134755,-0.19134755,0.98152235,-14977.345,-800.73693)"
         id="g18071">
        <path
           sodipodi:nodetypes="cccc"
           inkscape:connector-curvature="0"
           id="path18063"
           d="m -5625.234,-6912.1739 c 48.638,-36.1918 24.7429,-45.2435 58.5244,-64.2314 l 26.8701,24.0416 c -14.5602,25.219 -24.5833,10.4914 -78.3234,54.332"
           style="fill:#eaeaea;fill-opacity:1;stroke:#737373;stroke-width:12.09799957;stroke-linecap:butt;stroke-linejoin:miter;stroke-miterlimit:4;stroke-dasharray:none;stroke-opacity:1;paint-order:stroke fill markers" />
        <rect
           transform="matrix(0.72519573,-0.68854277,0.71143758,0.70274929,0,0)"
           ry="5.2952724"
           rx="10.529051"
           y="-8901.3291"
           x="1035.1658"
           height="12.725295"
           width="58.317146"
           id="rect18065"
           style="fill:#6bb9f0;fill-opacity:1;stroke:#1272b7;stroke-width:12.10111046;stroke-linecap:round;stroke-linejoin:round;stroke-miterlimit:4;stroke-dasharray:none;stroke-opacity:1;paint-order:stroke fill markers" />
        <rect
           style="fill:#6bb9f0;fill-opacity:1;stroke:#1272b7;stroke-width:12.10111046;stroke-linecap:round;stroke-linejoin:round;stroke-miterlimit:4;stroke-dasharray:none;stroke-opacity:1;paint-order:stroke fill markers"
           id="rect18067"
           width="58.317146"
           height="12.725295"
           x="1035.1135"
           y="-8885.5488"
           rx="10.529051"
           ry="5.2952724"
           transform="matrix(0.72519573,-0.68854277,0.71143758,0.70274929,0,0)" />
        <rect
           transform="matrix(0.72519573,-0.68854277,0.71143758,0.70274929,0,0)"
           ry="5.2952724"
           rx="10.529051"
           y="-8869.6611"
           x="1035.0608"
           height="12.725295"
           width="58.317146"
           id="rect18069"
           style="fill:#6bb9f0;fill-opacity:1;stroke:#1272b7;stroke-width:12.10111046;stroke-linecap:round;stroke-linejoin:round;stroke-miterlimit:4;stroke-dasharray:none;stroke-opacity:1;paint-order:stroke fill markers" />
      </g>
      <path
         sodipodi:nodetypes="cccccszzzzc"
         inkscape:connector-curvature="0"
         id="path17997"
         d="m -8058.8036,-6485.2498 -21,54 -93,-22 27,-57 -23,-28 c 0,0 -14.9211,-17.5943 -12,-27 4.9433,-15.9169 36.5916,-14.7045 52,-12 15.4084,2.7045 35.9443,14.7437 34,22 -1.9443,7.2563 -28.1947,13.4838 -27,24 1.1947,10.5162 16.3589,31.2224 23,36 6.6411,4.7776 40,10 40,10 z"
         style="fill:#eaeaea;fill-opacity:1;stroke:#737373;stroke-width:12.09799957;stroke-linecap:butt;stroke-linejoin:round;stroke-miterlimit:4;stroke-dasharray:none;stroke-opacity:1;paint-order:stroke fill markers" />
      <path
         sodipodi:nodetypes="ssccccs"
         inkscape:connector-curvature="0"
         id="path18002"
         d="m -8146.6962,-6578.8709 c -14.6881,-0.1683 -30.7089,2.6782 -34.1074,13.6211 -2.9211,9.4057 12,27 12,27 h 0.5 c 3.3618,-33.4853 28.7404,-30.8133 60.9766,-30.9062 -6.5113,-3.7344 -14.5101,-6.871 -21.4766,-8.0938 -4.8151,-0.8452 -11.2162,-1.5446 -17.8926,-1.6211 z"
         style="fill:#6bb9f0;fill-opacity:1;stroke:#1272b7;stroke-width:8;stroke-linecap:butt;stroke-linejoin:round;stroke-miterlimit:4;stroke-dasharray:none;stroke-opacity:1;paint-order:stroke fill markers" />
      <path
         sodipodi:nodetypes="cssssccccccc"
         inkscape:connector-curvature="0"
         id="path17994"
         d="m -8059.8038,-6479.25 c 0,37.6972 -21.8407,71.9803 -56.006,87.9119 -34.1653,15.9316 -74.4666,10.6258 -103.3444,-13.6055 -20.3957,-17.114 -30.4884,-48.9616 -31.2204,-79.0224 -0.1956,-8.0348 95.0298,-10.6386 96.1537,-18.1027 0.6248,-4.1495 -93.3016,-13.4653 -92.2777,-17.2867 l 68.2504,-9.4959 10.5297,-8.8954 5.5841,10.105 21.1526,9.0568 -15.822,39.3349 c 24.004,38.3149 54.1916,48.1855 97,0 z"
         style="fill:#efbf18;fill-opacity:1;stroke:#4b3829;stroke-width:12.09799957;stroke-linecap:round;stroke-linejoin:round;stroke-miterlimit:4;stroke-dasharray:none;stroke-opacity:1;paint-order:stroke fill markers" />
      <path
         style="color:#000000;clip-rule:nonzero;display:inline;overflow:visible;visibility:visible;opacity:1;isolation:auto;mix-blend-mode:normal;color-interpolation:sRGB;color-interpolation-filters:linearRGB;solid-color:#000000;solid-opacity:1;fill:#1272b7;fill-opacity:1;fill-rule:nonzero;stroke:none;stroke-width:5.6666851;stroke-linecap:round;stroke-linejoin:miter;stroke-miterlimit:4;stroke-dasharray:none;stroke-dashoffset:0;stroke-opacity:1;color-rendering:auto;image-rendering:auto;shape-rendering:auto;text-rendering:auto;enable-background:accumulate"
         d="m -8147.1408,-6554.9819 a 5.7878189,5.7878189 0 0 0 -3.0302,0.7722 5.7878189,5.7878189 0 0 0 -2.8948,5.0124 v 12.4673 a 5.7878189,5.7878189 0 0 0 2.8948,5.0125 5.7878189,5.7878189 0 0 0 5.7873,0 5.7878189,5.7878189 0 0 0 2.8923,-5.0125 v -12.4673 a 5.7878189,5.7878189 0 0 0 -2.8923,-5.0124 5.7878189,5.7878189 0 0 0 -2.7571,-0.7722 z"
         id="path32739-9-1-4"
         inkscape:connector-curvature="0" />
      <g
         id="g18034"
         transform="translate(-2490.601,409.58287)">
        <path
           style="fill:#eaeaea;fill-opacity:1;stroke:#737373;stroke-width:12.09799957;stroke-linecap:butt;stroke-linejoin:miter;stroke-miterlimit:4;stroke-dasharray:none;stroke-opacity:1;paint-order:stroke fill markers"
           d="m -5625.234,-6912.1739 c 48.638,-36.1918 24.7429,-45.2435 58.5244,-64.2314 l 26.8701,24.0416 c -14.5602,25.219 -24.5833,10.4914 -78.3234,54.332"
           id="path18022"
           inkscape:connector-curvature="0"
           sodipodi:nodetypes="cccc" />
        <rect
           style="fill:#6bb9f0;fill-opacity:1;stroke:#1272b7;stroke-width:12.10111046;stroke-linecap:round;stroke-linejoin:round;stroke-miterlimit:4;stroke-dasharray:none;stroke-opacity:1;paint-order:stroke fill markers"
           id="rect18024"
           width="58.317146"
           height="12.725295"
           x="1035.1658"
           y="-8901.3291"
           rx="10.529051"
           ry="5.2952724"
           transform="matrix(0.72519573,-0.68854277,0.71143758,0.70274929,0,0)" />
        <rect
           transform="matrix(0.72519573,-0.68854277,0.71143758,0.70274929,0,0)"
           ry="5.2952724"
           rx="10.529051"
           y="-8885.5488"
           x="1035.1135"
           height="12.725295"
           width="58.317146"
           id="rect18026"
           style="fill:#6bb9f0;fill-opacity:1;stroke:#1272b7;stroke-width:12.10111046;stroke-linecap:round;stroke-linejoin:round;stroke-miterlimit:4;stroke-dasharray:none;stroke-opacity:1;paint-order:stroke fill markers" />
        <rect
           style="fill:#6bb9f0;fill-opacity:1;stroke:#1272b7;stroke-width:12.10111046;stroke-linecap:round;stroke-linejoin:round;stroke-miterlimit:4;stroke-dasharray:none;stroke-opacity:1;paint-order:stroke fill markers"
           id="rect18028"
           width="58.317146"
           height="12.725295"
           x="1035.0608"
           y="-8869.6611"
           rx="10.529051"
           ry="5.2952724"
           transform="matrix(0.72519573,-0.68854277,0.71143758,0.70274929,0,0)" />
      </g>
    </g>
    <g
       id="g17981"
       transform="matrix(0.26458333,0,0,0.26458333,881.43402,1812.028)">
      <path
         style="color:#000000;font-style:normal;font-variant:normal;font-weight:normal;font-stretch:normal;font-size:medium;line-height:normal;font-family:sans-serif;font-variant-ligatures:normal;font-variant-position:normal;font-variant-caps:normal;font-variant-numeric:normal;font-variant-alternates:normal;font-feature-settings:normal;text-indent:0;text-align:start;text-decoration:none;text-decoration-line:none;text-decoration-style:solid;text-decoration-color:#000000;letter-spacing:normal;word-spacing:normal;text-transform:none;writing-mode:lr-tb;direction:ltr;text-orientation:mixed;dominant-baseline:auto;baseline-shift:baseline;text-anchor:start;white-space:normal;shape-padding:0;clip-rule:nonzero;display:inline;overflow:visible;visibility:visible;opacity:1;isolation:auto;mix-blend-mode:normal;color-interpolation:sRGB;color-interpolation-filters:linearRGB;solid-color:#000000;solid-opacity:1;vector-effect:none;fill:#2b2b2b;fill-opacity:1;fill-rule:evenodd;stroke:#373737;stroke-width:11.33858299;stroke-linecap:round;stroke-linejoin:round;stroke-miterlimit:4;stroke-dasharray:none;stroke-dashoffset:0;stroke-opacity:1;color-rendering:auto;image-rendering:auto;shape-rendering:auto;text-rendering:auto;enable-background:accumulate"
         d="m -5569.7031,-6075.6504 v 17.8809 c -2.506,3.0754 -2.9574,7.3413 -1.1504,10.873 0.1571,0.5711 0.3637,1.3545 0.623,2.4375 0.5984,2.4991 1.3594,5.9427 2.0938,9.3711 1.3018,6.0767 2.2551,10.8299 2.5176,12.1289 l -3.9493,32.0449 c -0.763,5.5277 3.1451,10.6106 8.6833,11.2934 5.5382,0.6828 10.5639,-3.2986 11.1663,-8.8461 l 4.1524,-33.6855 c 0.1313,-1.0647 -0.4725,-13.3937 -0.6836,-14.4454 -0.2343,-11.8072 16.9696,-14.2056 22.8496,2.3887 l -3.3887,43.2949 c -0.763,5.5277 3.1451,10.6106 8.6833,11.2934 5.5382,0.6828 10.5639,-3.2986 11.1663,-8.8461 l 4.1543,-33.6855 c 0.1307,-1.0648 0.089,-2.1438 -0.123,-3.1954 0,0 -1.3895,-6.9126 -2.8926,-13.9296 -0.7516,-3.5085 -1.5282,-7.0352 -2.1992,-9.8379 -0.3356,-1.4013 -0.6367,-2.6014 -0.9453,-3.6758 -0.1542,-0.5372 -0.2953,-1.0203 -0.5449,-1.6895 -0.1248,-0.3346 -0.2593,-0.7007 -0.5938,-1.3515 -0.3029,-0.5891 -0.057,-1.4793 -2.6972,-3.3653 v -16.4531 z m -0.75,29.4707 c 0.2811,0.4475 0.5972,0.872 0.9453,1.2695 -0.4785,-0.5543 -0.8723,-0.9755 -0.9453,-1.2695 z"
         transform="translate(2440.5676,-201.78064)"
         id="path16472"
         inkscape:connector-curvature="0"
         sodipodi:nodetypes="cccccccscccccsccccccsccccccc" />
      <path
         style="color:#000000;font-style:normal;font-variant:normal;font-weight:normal;font-stretch:normal;font-size:medium;line-height:normal;font-family:sans-serif;text-indent:0;text-align:start;text-decoration:none;text-decoration-line:none;text-decoration-style:solid;text-decoration-color:#000000;letter-spacing:normal;word-spacing:normal;text-transform:none;writing-mode:lr-tb;direction:ltr;baseline-shift:baseline;text-anchor:start;white-space:normal;clip-rule:nonzero;display:inline;overflow:visible;visibility:visible;opacity:1;isolation:auto;mix-blend-mode:normal;color-interpolation:sRGB;color-interpolation-filters:linearRGB;solid-color:#000000;solid-opacity:1;fill:none;fill-opacity:1;fill-rule:evenodd;stroke:#000000;stroke-width:12.10000134;stroke-linecap:round;stroke-linejoin:round;stroke-miterlimit:4;stroke-dasharray:none;stroke-dashoffset:0;stroke-opacity:1;color-rendering:auto;image-rendering:auto;shape-rendering:auto;text-rendering:auto;enable-background:accumulate"
         d="m -3079.9118,-6190.1705 a 8.1905277,9.5662371 0 0 0 -6.7293,14.9812 c 2.3482,4.1167 5.7925,5.2567 8.0889,5.6606 2.2964,0.4041 4.1494,0.223 5.7984,-0.016 3.2979,-0.4794 5.9871,-1.4872 5.9871,-1.4872 a 8.1905277,9.5662371 0 1 0 -4.8324,-18.2786 c 0,0 -1.6469,0.5584 -3.1781,0.7809 -0.28,0.041 -0.2647,0.021 -0.4879,0.03 a 8.1905277,9.5662371 0 0 0 -4.6467,-1.6702 z"
         id="path32703-4-9-0"
         inkscape:connector-curvature="0" />
      <path
         inkscape:connector-curvature="0"
         id="path32695-7-8-9"
         d="m -3123.8151,-6191.4467 a 8.1905277,9.5662371 0 0 0 -6.7292,14.9812 c 2.3481,4.1167 5.7924,5.2567 8.0888,5.6606 2.2964,0.4041 4.1494,0.223 5.7984,-0.016 3.2979,-0.4794 5.9871,-1.4872 5.9871,-1.4872 a 8.1905277,9.5662371 0 1 0 -4.8323,-18.2786 c 0,0 -1.647,0.5584 -3.1781,0.7809 -0.2801,0.041 -0.2647,0.02 -0.4879,0.03 a 8.1905277,9.5662371 0 0 0 -4.6468,-1.6702 z"
         style="color:#000000;font-style:normal;font-variant:normal;font-weight:normal;font-stretch:normal;font-size:medium;line-height:normal;font-family:sans-serif;text-indent:0;text-align:start;text-decoration:none;text-decoration-line:none;text-decoration-style:solid;text-decoration-color:#000000;letter-spacing:normal;word-spacing:normal;text-transform:none;writing-mode:lr-tb;direction:ltr;baseline-shift:baseline;text-anchor:start;white-space:normal;clip-rule:nonzero;display:inline;overflow:visible;visibility:visible;opacity:1;isolation:auto;mix-blend-mode:normal;color-interpolation:sRGB;color-interpolation-filters:linearRGB;solid-color:#000000;solid-opacity:1;fill:none;fill-opacity:1;fill-rule:evenodd;stroke:#000000;stroke-width:12.10000134;stroke-linecap:round;stroke-linejoin:round;stroke-miterlimit:4;stroke-dasharray:none;stroke-dashoffset:0;stroke-opacity:1;color-rendering:auto;image-rendering:auto;shape-rendering:auto;text-rendering:auto;enable-background:accumulate" />
      <path
         inkscape:export-ydpi="90"
         inkscape:export-xdpi="90"
         inkscape:export-filename="C:\Users\benja_000\Pictures\esharp.png"
         sodipodi:nodetypes="sssssssss"
         inkscape:connector-curvature="0"
         id="path32697-6-3-5"
         d="m -3131.0767,-6358.5183 c 16.3321,-3.3447 30.0516,-11.2607 54.7306,0 5.1103,2.3318 7.1193,4.8835 8.6518,10.2871 5.4906,19.3586 -0.5512,37.6941 -1.0369,56.5549 -0.1446,5.6148 -4.7033,8.7236 -10.1395,10.1383 -16.9815,4.4193 -33.6082,5.646 -49.4712,0 -5.2919,-1.8835 20.8584,-5.9974 21.3085,-11.596 1.5196,-18.9012 -28.2493,-34.4744 -26.5895,-54.2106 0.4883,-5.8064 -2.9569,-10.0467 2.5462,-11.1737 z"
         style="fill:none;fill-opacity:1;stroke:#929fb8;stroke-width:12.10000038;stroke-miterlimit:4;stroke-dasharray:none;stroke-opacity:1" />
      <path
         sodipodi:nodetypes="cccccccscccccsccccccsccccccc"
         inkscape:connector-curvature="0"
         id="path32699-8-5-1"
         transform="translate(2440.5676,-201.78064)"
         d="m -5569.7031,-6075.6504 v 17.8809 c -2.506,3.0754 -2.9574,7.3413 -1.1504,10.873 0.1571,0.5711 0.3637,1.3545 0.623,2.4375 0.5984,2.4991 1.3594,5.9427 2.0938,9.3711 1.3018,6.0767 2.2551,10.8299 2.5176,12.1289 l -3.9493,32.0449 c -0.763,5.5277 3.1451,10.6106 8.6833,11.2934 5.5382,0.6828 10.5639,-3.2986 11.1663,-8.8461 l 4.1524,-33.6855 c 0.1313,-1.0647 -0.4725,-13.3937 -0.6836,-14.4454 -0.2343,-11.8072 16.9696,-14.2056 22.8496,2.3887 l -3.3887,43.2949 c -0.763,5.5277 3.1451,10.6106 8.6833,11.2934 5.5382,0.6828 10.5639,-3.2986 11.1663,-8.8461 l 4.1543,-33.6855 c 0.1307,-1.0648 0.089,-2.1438 -0.123,-3.1954 0,0 -1.3895,-6.9126 -2.8926,-13.9296 -0.7516,-3.5085 -1.5282,-7.0352 -2.1992,-9.8379 -0.3356,-1.4013 -0.6367,-2.6014 -0.9453,-3.6758 -0.1542,-0.5372 -0.2953,-1.0203 -0.5449,-1.6895 -0.1248,-0.3346 -0.2593,-0.7007 -0.5938,-1.3515 -0.3029,-0.5891 -0.057,-1.4793 -2.6972,-3.3653 v -16.4531 z m -0.75,29.4707 c 0.2811,0.4475 0.5972,0.872 0.9453,1.2695 -0.4785,-0.5543 -0.8723,-0.9755 -0.9453,-1.2695 z"
         style="color:#000000;font-style:normal;font-variant:normal;font-weight:normal;font-stretch:normal;font-size:medium;line-height:normal;font-family:sans-serif;font-variant-ligatures:normal;font-variant-position:normal;font-variant-caps:normal;font-variant-numeric:normal;font-variant-alternates:normal;font-feature-settings:normal;text-indent:0;text-align:start;text-decoration:none;text-decoration-line:none;text-decoration-style:solid;text-decoration-color:#000000;letter-spacing:normal;word-spacing:normal;text-transform:none;writing-mode:lr-tb;direction:ltr;text-orientation:mixed;dominant-baseline:auto;baseline-shift:baseline;text-anchor:start;white-space:normal;shape-padding:0;clip-rule:nonzero;display:inline;overflow:visible;visibility:visible;opacity:1;isolation:auto;mix-blend-mode:normal;color-interpolation:sRGB;color-interpolation-filters:linearRGB;solid-color:#000000;solid-opacity:1;vector-effect:none;fill:#808080;fill-opacity:1;fill-rule:evenodd;stroke:none;stroke-width:20;stroke-linecap:round;stroke-linejoin:round;stroke-miterlimit:4;stroke-dasharray:none;stroke-dashoffset:0;stroke-opacity:1;color-rendering:auto;image-rendering:auto;shape-rendering:auto;text-rendering:auto;enable-background:accumulate" />
      <g
         style="stroke:#000000;stroke-opacity:1"
         transform="matrix(1,0,0,0.86274625,-10136.612,1241.689)"
         id="g32721-5-7-02">
        <path
           style="fill:#eaeaea;fill-opacity:1;stroke:#000000;stroke-width:13.02511787;stroke-miterlimit:4;stroke-dasharray:none;stroke-opacity:1"
           d="m 7008.0356,-8805.3952 c 16.3321,-3.3447 30.0516,-11.2607 54.7306,0 5.1103,2.3318 7.1193,4.8835 8.6518,10.2871 5.4906,19.3586 0.5095,62.8968 0.024,81.7576 -0.1446,5.6148 -4.7033,8.7236 -10.1395,10.1383 -16.9815,4.4193 -33.6082,5.646 -49.4712,0 -5.2919,-1.8835 9.8204,-5.3727 10.2705,-10.9713 1.5196,-18.9012 -18.272,-60.3018 -16.6122,-80.038 0.4883,-5.8064 -2.9569,-10.0467 2.5462,-11.1737 z"
           id="path16462"
           inkscape:connector-curvature="0"
           sodipodi:nodetypes="cssssssssc"
           inkscape:export-filename="C:\Users\benja_000\Pictures\esharp.png"
           inkscape:export-xdpi="90"
           inkscape:export-ydpi="90" />
        <path
           inkscape:export-ydpi="90"
           inkscape:export-xdpi="90"
           inkscape:export-filename="C:\Users\benja_000\Pictures\esharp.png"
           sodipodi:nodetypes="cssssssssc"
           inkscape:connector-curvature="0"
           id="path32709-3-2-3"
           d="m 7008.0356,-8805.3952 c 16.3321,-3.3447 30.0516,-11.2607 54.7306,0 5.1103,2.3318 7.1193,4.8835 8.6518,10.2871 5.4906,19.3586 0.5095,62.8968 0.024,81.7576 -0.1446,5.6148 -4.7033,8.7236 -10.1395,10.1383 -16.9815,4.4193 -33.6082,5.646 -49.4712,0 -5.2919,-1.8835 9.8204,-5.3727 10.2705,-10.9713 1.5196,-18.9012 -18.272,-60.3018 -16.6122,-80.038 0.4883,-5.8064 -2.9569,-10.0467 2.5462,-11.1737 z"
           style="fill:#eaeaea;fill-opacity:1;stroke:#000000;stroke-width:2.13700008;stroke-miterlimit:4;stroke-dasharray:none;stroke-opacity:1" />
        <path
           sodipodi:nodetypes="ccccsccscccc"
           inkscape:connector-curvature="0"
           id="path16460"
           d="m 7074.1589,-8817.6709 c -0.01,-0.01 -0.012,-1e-4 -0.017,0.013 -18.28,12.7688 -26.7564,52.9841 -30.6523,74.0501 -0.2527,-0.7814 -0.4516,-1.4238 -0.5206,-1.7374 -6.7275,-19.7842 -13.3177,-43.0596 -27.3079,-56.581 -5.633,-5.4442 6.2844,-41.4718 -20.9899,-10.7241 0.5953,27.045 12.6646,89.7409 4.5184,116.001 37.481,15.4992 40.8049,-30.9974 43.5519,-30.9974 2.9142,0 -2.064,44.5363 35.9822,35.7349 -7.4592,-26.2601 -2.3442,-90.461 -4.2678,-117.506 -0.3353,0.1903 -0.124,-8.1157 -0.2961,-8.2531 z"
           style="fill:none;fill-opacity:1;fill-rule:evenodd;stroke:#000000;stroke-width:13.02482891;stroke-linecap:butt;stroke-linejoin:miter;stroke-miterlimit:4;stroke-dasharray:none;stroke-opacity:1" />
        <path
           style="fill:#3958a0;fill-opacity:1;fill-rule:evenodd;stroke:#000000;stroke-width:0.81115264px;stroke-linecap:butt;stroke-linejoin:miter;stroke-opacity:1"
           d="m 7074.1589,-8817.6709 c -0.01,-0.01 -0.012,-1e-4 -0.017,0.013 -18.28,12.7688 -26.7564,52.9841 -30.6523,74.0501 -0.2527,-0.7814 -0.4516,-1.4238 -0.5206,-1.7374 -9.4362,-27.7501 -29.1024,-85.5505 -48.2978,-67.3051 0.5953,27.045 12.6646,89.7409 4.5184,116.001 37.481,15.4992 40.8049,-30.9974 43.5519,-30.9974 2.9142,0 -2.064,44.5363 35.9822,35.7349 -7.4592,-26.2601 -2.3442,-90.461 -4.2678,-117.506 -0.3353,0.1903 -0.124,-8.1157 -0.2961,-8.2531 z"
           id="path32719-9-4-1"
           inkscape:connector-curvature="0"
           sodipodi:nodetypes="ccccccscccc" />
      </g>
      <g
         transform="translate(0.08838835,-1.4142136)"
         id="g17883">
        <path
           style="fill:#eaeaea;fill-opacity:1;stroke:#000000;stroke-width:8;stroke-linecap:round;stroke-linejoin:round;stroke-miterlimit:4;stroke-dasharray:none;stroke-opacity:1;paint-order:stroke fill markers"
           d="m -3111.7259,-6355.1243 c -0.5619,-0.019 -1.0345,0.031 -1.377,0.1641 -2.7399,1.0639 -2.7399,9.5747 0,10.6387 2.1218,0.8239 9.1551,-1.5409 12.2285,-3.6387 a 3.2557507,3.2557507 0 0 0 2.5274,1.207 3.2557507,3.2557507 0 0 0 2.6914,-1.4258 c 2.8825,2.1473 10.3453,4.7101 12.541,3.8575 2.7399,-1.064 2.7399,-9.5748 0,-10.6387 -2.127,-0.826 -9.1885,1.5527 -12.25,3.6543 a 3.2557507,3.2557507 0 0 0 -2.9824,-1.959 3.2557507,3.2557507 0 0 0 -2.8653,1.7129 c -2.6888,-1.6945 -7.7219,-3.4794 -10.5136,-3.5723 z"
           id="path17841"
           inkscape:connector-curvature="0" />
        <circle
           style="fill:#3958a0;fill-opacity:1;stroke:none;stroke-width:8;stroke-linecap:round;stroke-linejoin:round;stroke-miterlimit:4;stroke-dasharray:none;stroke-opacity:1;paint-order:stroke fill markers"
           id="path17861"
           cx="-3111.2812"
           cy="-6348.1411"
           r="2.1213202" />
        <circle
           r="2.1213202"
           cy="-6352.8257"
           cx="-3088.9189"
           id="circle17863"
           style="fill:#3958a0;fill-opacity:1;stroke:none;stroke-width:8;stroke-linecap:round;stroke-linejoin:round;stroke-miterlimit:4;stroke-dasharray:none;stroke-opacity:1;paint-order:stroke fill markers" />
        <circle
           style="fill:#3958a0;fill-opacity:1;stroke:none;stroke-width:8;stroke-linecap:round;stroke-linejoin:round;stroke-miterlimit:4;stroke-dasharray:none;stroke-opacity:1;paint-order:stroke fill markers"
           id="circle17865"
           cx="-3097.5811"
           cy="-6350.793"
           r="2.1213202" />
        <circle
           r="2.1213202"
           cy="-6352.2954"
           cx="-3107.8342"
           id="circle17867"
           style="fill:#3958a0;fill-opacity:1;stroke:none;stroke-width:8;stroke-linecap:round;stroke-linejoin:round;stroke-miterlimit:4;stroke-dasharray:none;stroke-opacity:1;paint-order:stroke fill markers" />
        <circle
           style="fill:#3958a0;fill-opacity:1;stroke:none;stroke-width:8;stroke-linecap:round;stroke-linejoin:round;stroke-miterlimit:4;stroke-dasharray:none;stroke-opacity:1;paint-order:stroke fill markers"
           id="circle17869"
           cx="-3103.7683"
           cy="-6349.29"
           r="2.1213202" />
        <circle
           r="2.1213202"
           cy="-6347.876"
           cx="-3090.0681"
           id="circle17871"
           style="fill:#3958a0;fill-opacity:1;stroke:none;stroke-width:8;stroke-linecap:round;stroke-linejoin:round;stroke-miterlimit:4;stroke-dasharray:none;stroke-opacity:1;paint-order:stroke fill markers" />
        <circle
           style="fill:#3958a0;fill-opacity:1;stroke:none;stroke-width:8;stroke-linecap:round;stroke-linejoin:round;stroke-miterlimit:4;stroke-dasharray:none;stroke-opacity:1;paint-order:stroke fill markers"
           id="circle17873"
           cx="-3084.146"
           cy="-6349.2017"
           r="2.1213202" />
      </g>
      <g
         transform="translate(-10036.63,2445.0195)"
         id="g32765-5-2-1">
        <g
           transform="matrix(1.0799036,0,0,1.0803777,486.49573,801.57257)"
           id="g32751-3-0-5"
           style="stroke-width:0.92580539">
          <path
             sodipodi:nodetypes="cccccccccccc"
             inkscape:connector-curvature="0"
             style="color:#000000;clip-rule:nonzero;display:inline;overflow:visible;visibility:visible;opacity:1;isolation:auto;mix-blend-mode:normal;color-interpolation:sRGB;color-interpolation-filters:linearRGB;solid-color:#000000;solid-opacity:1;fill:#4d382a;fill-opacity:1;fill-rule:evenodd;stroke:#271c15;stroke-width:12.10000038;stroke-linecap:round;stroke-linejoin:round;stroke-miterlimit:4;stroke-dasharray:none;stroke-dashoffset:0;stroke-opacity:1;color-rendering:auto;image-rendering:auto;shape-rendering:auto;text-rendering:auto;enable-background:accumulate"
             d="m -5544.0801,-6263.2168 c -25.1185,0.1221 -46.8847,8.4476 -52.3847,35.5156 -0.8993,7.6213 -3.6889,25.7676 5.9921,34.8086 6.5092,4.172 18.9138,21.3821 23.4512,24.9278 4.2786,-21.3526 -4.4242,-43.8281 8.5918,-44.6524 9.5955,-0.6077 17.6497,6.9679 24.4238,7.1211 9.7137,-1.4722 15.0455,-6.4855 28.2774,-5.5469 10.7623,1.9307 6.9189,15.7052 6.2969,27.7207 1.2485,-1.1589 2.4254,-2.3089 3.5332,-3.4511 -1.3777,3.9174 -3.6635,9.3908 -7.2989,17.414 35.6335,-26.0414 38.9838,-80.4088 -10.6289,-90.8633 -10.0824,-1.8325 -20.4249,-3.0419 -30.2539,-2.9941 z"
             transform="matrix(0.92600858,0,0,0.92560222,11099.309,-3195.0474)"
             id="path17811" />
          <path
             style="color:#000000;clip-rule:nonzero;display:inline;overflow:visible;visibility:visible;opacity:1;isolation:auto;mix-blend-mode:normal;color-interpolation:sRGB;color-interpolation-filters:linearRGB;solid-color:#000000;solid-opacity:1;fill:#4d382a;fill-opacity:1;fill-rule:evenodd;stroke:none;stroke-width:11.20224571;stroke-linecap:round;stroke-linejoin:round;stroke-miterlimit:4;stroke-dasharray:none;stroke-dashoffset:0;stroke-opacity:1;color-rendering:auto;image-rendering:auto;shape-rendering:auto;text-rendering:auto;enable-background:accumulate"
             d="m 5947.2307,-8966.0357 h 47.9001 c 14.2581,0 25.7366,12.0901 25.7366,27.1079 v 9.9485 c 0,4.1484 -15.4274,20.4742 -24.4866,32.0711 -16.9997,21.7618 -33.7822,16.6302 -48.9001,-1.25 -9.4825,-11.2151 -25.0044,-29.9749 -25.0044,-28.7352 l -0.9822,-12.0344 c -1.2216,-14.9681 11.4786,-27.1079 25.7366,-27.1079 z"
             id="path32725-2-9-6"
             inkscape:connector-curvature="0"
             sodipodi:nodetypes="sssssscss" />
          <path
             sodipodi:nodetypes="sssssscss"
             inkscape:connector-curvature="0"
             id="path32727-3-7-5"
             d="m 5948.9807,-8971.5357 h 47.9001 c 14.2581,0 25.7366,12.0901 25.7366,27.1079 v 9.9485 c 0,4.1484 -16.6774,19.7242 -25.7366,31.3211 -16.9997,21.7618 -32.7822,17.8802 -47.9001,0 -9.4825,-11.2151 -25.7366,-28.3478 -25.7366,-27.1081 v -14.1615 c 0,-15.0178 11.4786,-27.1079 25.7366,-27.1079 z"
             style="color:#000000;clip-rule:nonzero;display:inline;overflow:visible;visibility:visible;opacity:1;isolation:auto;mix-blend-mode:normal;color-interpolation:sRGB;color-interpolation-filters:linearRGB;solid-color:#000000;solid-opacity:1;fill:#f9ca9e;fill-opacity:1;fill-rule:evenodd;stroke:none;stroke-width:11.20224571;stroke-linecap:round;stroke-linejoin:round;stroke-miterlimit:4;stroke-dasharray:none;stroke-dashoffset:0;stroke-opacity:1;color-rendering:auto;image-rendering:auto;shape-rendering:auto;text-rendering:auto;enable-background:accumulate" />
          <path
             sodipodi:nodetypes="cc"
             inkscape:connector-curvature="0"
             id="path32735-9-0-1"
             d="m 5967.2473,-8900.8856 c 5.2561,-5.7845 9.6993,-3.2292 13.9653,0"
             style="fill:none;fill-rule:evenodd;stroke:#4d382a;stroke-width:3.24031878;stroke-linecap:round;stroke-linejoin:miter;stroke-miterlimit:4;stroke-dasharray:none;stroke-opacity:1" />
          <g
             transform="translate(1.8561553,-2.032932)"
             id="g32741-3-5-4"
             style="stroke-width:0.92580539">
            <path
               inkscape:connector-curvature="0"
               id="path32739-9-8-7"
               d="m 5890.6875,-9575.5605 a 4.5961943,4.5961943 0 0 0 -2.4063,0.6132 4.5961943,4.5961943 0 0 0 -2.2988,3.9805 v 9.9004 a 4.5961943,4.5961943 0 0 0 2.2988,3.9805 4.5961943,4.5961943 0 0 0 4.5958,0 4.5961943,4.5961943 0 0 0 2.2968,-3.9805 v -9.9004 a 4.5961943,4.5961943 0 0 0 -2.2968,-3.9805 4.5961943,4.5961943 0 0 0 -2.1895,-0.6132 z"
               style="color:#000000;clip-rule:nonzero;display:inline;overflow:visible;visibility:visible;opacity:1;isolation:auto;mix-blend-mode:normal;color-interpolation:sRGB;color-interpolation-filters:linearRGB;solid-color:#000000;solid-opacity:1;fill:#3958a0;fill-opacity:1;fill-rule:nonzero;stroke:none;stroke-width:4.16612434;stroke-linecap:round;stroke-linejoin:miter;stroke-miterlimit:4;stroke-dasharray:none;stroke-dashoffset:0;stroke-opacity:1;color-rendering:auto;image-rendering:auto;shape-rendering:auto;text-rendering:auto;enable-background:accumulate"
               transform="translate(68.500664,647.35195)" />
          </g>
          <g
             id="g32745-4-0-2"
             transform="translate(29.344932,-2.032932)"
             style="stroke-width:0.92580539">
            <path
               inkscape:connector-curvature="0"
               id="path32743-2-0-0"
               d="m 5918.1758,-9575.5605 a 4.5961943,4.5961943 0 0 0 -2.4063,0.6132 4.5961943,4.5961943 0 0 0 -2.2988,3.9805 v 9.9004 a 4.5961943,4.5961943 0 0 0 2.2988,3.9805 4.5961943,4.5961943 0 0 0 4.5957,0 4.5961943,4.5961943 0 0 0 2.2989,-3.9805 v 0 -9.9004 0 a 4.5961943,4.5961943 0 0 0 -2.2989,-3.9805 4.5961943,4.5961943 0 0 0 -2.1894,-0.6132 z"
               style="color:#000000;clip-rule:nonzero;display:inline;overflow:visible;visibility:visible;opacity:1;isolation:auto;mix-blend-mode:normal;color-interpolation:sRGB;color-interpolation-filters:linearRGB;solid-color:#000000;solid-opacity:1;fill:#3958a0;fill-opacity:1;fill-rule:nonzero;stroke:none;stroke-width:4.16612434;stroke-linecap:round;stroke-linejoin:miter;stroke-miterlimit:4;stroke-dasharray:none;stroke-dashoffset:0;stroke-opacity:1;color-rendering:auto;image-rendering:auto;shape-rendering:auto;text-rendering:auto;enable-background:accumulate"
               transform="translate(41.011887,647.35195)" />
          </g>
          <g
             id="g32747-7-9-3"
             transform="translate(1.8561553,-2.032932)"
             style="stroke-width:0.92580539" />
          <g
             transform="translate(0,-0.21641908)"
             id="g32749-0-0-7"
             style="stroke-width:0.92580539" />
          <path
             inkscape:connector-curvature="0"
             id="path32729-4-6-5"
             transform="matrix(0.92600858,0,0,0.92560222,11099.309,-3195.0474)"
             d="m -5544.0801,-6263.2168 c -25.1185,0.1221 -46.8847,8.4476 -52.3847,35.5156 -0.8993,7.6213 -3.6889,25.7676 5.9921,34.8086 1.1952,0.1262 2.2041,0.231 3.2247,0.336 3.3524,4.0808 7.7261,8.0382 13.1015,12.2168 4.2786,-21.3526 2.7008,-31.4531 15.7168,-32.2774 9.5955,-0.6077 17.6497,6.9679 24.4238,7.1211 9.7137,-1.4722 15.0455,-6.4855 28.2774,-5.5469 10.7623,1.9307 6.9189,15.7052 6.2969,27.7207 1.2485,-1.1589 2.4254,-2.3089 3.5332,-3.4511 -1.3777,3.9174 -3.6635,9.3908 -7.2989,17.414 35.6335,-26.0414 38.9838,-80.4088 -10.6289,-90.8633 -10.0824,-1.8325 -20.4249,-3.0419 -30.2539,-2.9941 z"
             style="color:#000000;clip-rule:nonzero;display:inline;overflow:visible;visibility:visible;opacity:1;isolation:auto;mix-blend-mode:normal;color-interpolation:sRGB;color-interpolation-filters:linearRGB;solid-color:#000000;solid-opacity:1;fill:#4d382a;fill-opacity:1;fill-rule:evenodd;stroke:none;stroke-width:12.10000038;stroke-linecap:round;stroke-linejoin:round;stroke-miterlimit:4;stroke-dasharray:none;stroke-dashoffset:0;stroke-opacity:1;color-rendering:auto;image-rendering:auto;shape-rendering:auto;text-rendering:auto;enable-background:accumulate" />
          <path
             inkscape:connector-curvature="0"
             style="color:#000000;clip-rule:nonzero;display:inline;overflow:visible;visibility:visible;opacity:1;isolation:auto;mix-blend-mode:normal;color-interpolation:sRGB;color-interpolation-filters:linearRGB;solid-color:#000000;solid-opacity:1;fill:#805940;fill-opacity:1;fill-rule:evenodd;stroke:none;stroke-width:11.20224571;stroke-linecap:round;stroke-linejoin:round;stroke-miterlimit:4;stroke-dasharray:none;stroke-dashoffset:0;stroke-opacity:1;color-rendering:auto;image-rendering:auto;shape-rendering:auto;text-rendering:auto;enable-background:accumulate"
             d="m 5944.6481,-8981.4809 c -13.3861,5.1233 -16,6.8346 -21.902,19.0909 -6.398,22.2372 -5.7218,27.5062 11.7062,41.0477 3.962,-19.764 4.676,-26.9666 16.729,-27.7296 8.885,-0.5625 15.329,5.1907 21.5869,4.7334 19.7488,-1.443 43.8713,-4.1391 22.3495,-11.0414 -21.5218,-6.9022 -24.6459,-31.3071 -50.4696,-26.101 z"
             id="path32731-9-72-2"
             sodipodi:nodetypes="cccsszc" />
        </g>
      </g>
      <path
         sodipodi:nodetypes="cc"
         inkscape:connector-curvature="0"
         id="path32735-9-0-1-7"
         d="m -3102.1973,-6390.7981 c 2.7338,-2.7113 5.0449,-1.7553 7.2639,0"
         style="fill:none;fill-rule:evenodd;stroke:#212121;stroke-width:3.77952766;stroke-linecap:round;stroke-linejoin:miter;stroke-miterlimit:4;stroke-dasharray:none;stroke-opacity:1" />
      <circle
         style="color:#000000;clip-rule:nonzero;display:inline;overflow:visible;visibility:visible;opacity:1;isolation:auto;mix-blend-mode:normal;color-interpolation:sRGB;color-interpolation-filters:linearRGB;solid-color:#000000;solid-opacity:1;fill:#f9ca9e;fill-opacity:1;fill-rule:nonzero;stroke:#4b3829;stroke-width:6.05000019;stroke-linecap:round;stroke-linejoin:round;stroke-miterlimit:4;stroke-dasharray:none;stroke-dashoffset:0;stroke-opacity:1;color-rendering:auto;image-rendering:auto;shape-rendering:auto;text-rendering:auto;enable-background:accumulate"
         id="circle32767-5-4-0"
         cx="-3148.2888"
         cy="-6314.415"
         r="13.25" />
      <circle
         r="13.25"
         cy="-6312.8691"
         cx="-3044.6997"
         id="circle32769-6-4-26"
         style="color:#000000;clip-rule:nonzero;display:inline;overflow:visible;visibility:visible;opacity:1;isolation:auto;mix-blend-mode:normal;color-interpolation:sRGB;color-interpolation-filters:linearRGB;solid-color:#000000;solid-opacity:1;fill:#f9ca9e;fill-opacity:1;fill-rule:nonzero;stroke:#4b3829;stroke-width:6.05000019;stroke-linecap:round;stroke-linejoin:round;stroke-miterlimit:4;stroke-dasharray:none;stroke-dashoffset:0;stroke-opacity:1;color-rendering:auto;image-rendering:auto;shape-rendering:auto;text-rendering:auto;enable-background:accumulate" />
      <path
         inkscape:connector-curvature="0"
         id="path32771-5-8-8"
         d="m -3123.8151,-6191.4469 a 8.1905276,9.5662371 0 0 0 -6.7294,14.9812 c 2.3484,4.1167 5.7926,5.2567 8.089,5.6606 2.2964,0.4041 4.1494,0.223 5.7984,-0.016 3.2979,-0.4795 5.987,-1.4871 5.987,-1.4871 a 8.1905276,9.5662371 0 1 0 -4.8322,-18.2787 c 0,0 -1.6469,0.5583 -3.1783,0.7809 -0.2799,0.041 -0.2646,0.021 -0.4878,0.03 a 8.1905276,9.5662371 0 0 0 -4.6467,-1.6702 z"
         style="color:#000000;font-style:normal;font-variant:normal;font-weight:normal;font-stretch:normal;font-size:medium;line-height:normal;font-family:sans-serif;text-indent:0;text-align:start;text-decoration:none;text-decoration-line:none;text-decoration-style:solid;text-decoration-color:#000000;letter-spacing:normal;word-spacing:normal;text-transform:none;writing-mode:lr-tb;direction:ltr;baseline-shift:baseline;text-anchor:start;white-space:normal;clip-rule:nonzero;display:inline;overflow:visible;visibility:visible;opacity:1;isolation:auto;mix-blend-mode:normal;color-interpolation:sRGB;color-interpolation-filters:linearRGB;solid-color:#000000;solid-opacity:1;fill:#3958a0;fill-opacity:1;fill-rule:evenodd;stroke:none;stroke-width:20;stroke-linecap:round;stroke-linejoin:round;stroke-miterlimit:4;stroke-dasharray:none;stroke-dashoffset:0;stroke-opacity:1;color-rendering:auto;image-rendering:auto;shape-rendering:auto;text-rendering:auto;enable-background:accumulate" />
      <path
         style="color:#000000;font-style:normal;font-variant:normal;font-weight:normal;font-stretch:normal;font-size:medium;line-height:normal;font-family:sans-serif;text-indent:0;text-align:start;text-decoration:none;text-decoration-line:none;text-decoration-style:solid;text-decoration-color:#000000;letter-spacing:normal;word-spacing:normal;text-transform:none;writing-mode:lr-tb;direction:ltr;baseline-shift:baseline;text-anchor:start;white-space:normal;clip-rule:nonzero;display:inline;overflow:visible;visibility:visible;opacity:1;isolation:auto;mix-blend-mode:normal;color-interpolation:sRGB;color-interpolation-filters:linearRGB;solid-color:#000000;solid-opacity:1;fill:#3958a0;fill-opacity:1;fill-rule:evenodd;stroke:none;stroke-width:20;stroke-linecap:round;stroke-linejoin:round;stroke-miterlimit:4;stroke-dasharray:none;stroke-dashoffset:0;stroke-opacity:1;color-rendering:auto;image-rendering:auto;shape-rendering:auto;text-rendering:auto;enable-background:accumulate"
         d="m -3079.9119,-6190.1707 a 8.1905276,9.5662371 0 0 0 -6.7293,14.9812 c 2.3483,4.1167 5.7925,5.2567 8.0889,5.6606 2.2964,0.4041 4.1494,0.223 5.7984,-0.016 3.2979,-0.4795 5.987,-1.4872 5.987,-1.4872 a 8.1905276,9.5662371 0 1 0 -4.8321,-18.2786 c 0,0 -1.647,0.5583 -3.1784,0.7809 -0.2799,0.041 -0.2645,0.02 -0.4877,0.03 a 8.1905276,9.5662371 0 0 0 -4.6468,-1.6702 z"
         id="path32773-5-7-3"
         inkscape:connector-curvature="0" />
      <path
         sodipodi:nodetypes="cccc"
         inkscape:connector-curvature="0"
         id="path17815"
         d="m -3126.4324,-6329.2806 c 0,0 1.2448,-10 2.75,-10 1.625,0 7,7.875 7,7.875 z"
         style="fill:#eaeaea;fill-opacity:1;stroke:#b1b1b1;stroke-width:5.6692915;stroke-linecap:round;stroke-linejoin:round;stroke-miterlimit:4;stroke-dasharray:none;stroke-opacity:1;paint-order:stroke fill markers" />
      <path
         sodipodi:nodetypes="cc"
         inkscape:connector-curvature="0"
         id="path17813"
         d="m -3128.9324,-6328.2806 c 5.0833,1.0779 10.1667,-0.261 15.25,-2.5"
         style="fill:none;stroke:#000000;stroke-width:5.6692915;stroke-linecap:round;stroke-linejoin:miter;stroke-miterlimit:4;stroke-dasharray:none;stroke-opacity:1" />
      <g
         transform="matrix(0.85217925,0,0,0.85217925,-305.11241,-927.18615)"
         id="g17824">
        <path
           style="fill:#3d3d3d;fill-opacity:1;stroke:#212121;stroke-width:8.87026405;stroke-linecap:round;stroke-linejoin:round;stroke-miterlimit:4;stroke-dasharray:none;stroke-opacity:1;paint-order:stroke fill markers"
           d="m -3303.7994,-6423.2808 h 7.75 c 6.5095,0 11.75,3.1778 11.75,7.125 v 6.25 c 0,3.9473 -5.8655,7.125 -12.375,7.125 h -7.125 c -6.5095,0 -8.7427,-3.026 -10.5,-7.125 -0.8371,-1.9527 -1.25,-6.25 -1.25,-6.25 -0.7741,-3.8705 5.2405,-7.125 11.75,-7.125 z"
           id="rect17817"
           inkscape:connector-curvature="0"
           sodipodi:nodetypes="sssssssss" />
        <path
           sodipodi:nodetypes="sssssssss"
           inkscape:connector-curvature="0"
           id="path17820"
           d="m -3252.9055,-6423.2808 h -7.75 c -6.5095,0 -11.75,3.1778 -11.75,7.125 v 6.25 c 0,3.9473 5.8655,7.125 12.375,7.125 h 7.125 c 6.5095,0 8.7427,-3.026 10.5,-7.125 0.8371,-1.9527 1.25,-6.25 1.25,-6.25 0.7741,-3.8705 -5.2405,-7.125 -11.75,-7.125 z"
           style="fill:#3d3d3d;fill-opacity:1;stroke:#212121;stroke-width:8.87026405;stroke-linecap:round;stroke-linejoin:round;stroke-miterlimit:4;stroke-dasharray:none;stroke-opacity:1;paint-order:stroke fill markers" />
      </g>
    </g>
    <path
       style="fill:#eaeaea;fill-opacity:1;stroke:#737373;stroke-width:2.47797918;stroke-linecap:round;stroke-linejoin:round;stroke-miterlimit:4;stroke-dasharray:none;stroke-opacity:0.63126364;paint-order:stroke fill markers"
       d="m 53.81119,75.236933 h 12.040605 c 3.765788,0 6.797464,3.031675 6.797464,6.79741 v 4.509373 c 0,3.765788 -3.031676,6.797437 -6.797464,6.797437 H 58.45677 l -0.307234,3.686863 -3.482022,-3.686863 H 53.81119 c -3.765788,0 -6.797463,-3.031649 -6.797463,-6.797437 v -4.509373 c 0,-3.765735 3.031675,-6.79741 6.797463,-6.79741 z"
       id="rect18443"
       inkscape:connector-curvature="0"
       sodipodi:nodetypes="ssssscccssss" />
    <path
       style="fill:#6bb9f0;fill-opacity:1;stroke:#1272b7;stroke-width:2.03315806;stroke-linecap:round;stroke-linejoin:round;stroke-miterlimit:4;stroke-dasharray:none;stroke-opacity:1;paint-order:stroke fill markers"
       d="m 62.995062,86.532683 c 0,1.601047 -1.297913,2.898987 -2.898986,2.898987 -1.601073,0 -2.898987,-1.29794 -2.898987,-2.898987 0,-1.601073 1.760088,-5.714973 2.898987,-6.345211 1.012878,0.546206 2.898986,4.744138 2.898986,6.345211 z"
       id="path18445"
       inkscape:connector-curvature="0"
       sodipodi:nodetypes="ssscs" />
  </g>
</svg>
