<?xml version="1.0" encoding="UTF-8" standalone="no"?>
<!-- Created with Inkscape (http://www.inkscape.org/) -->

<svg
   xmlns:dc="http://purl.org/dc/elements/1.1/"
   xmlns:cc="http://creativecommons.org/ns#"
   xmlns:rdf="http://www.w3.org/1999/02/22-rdf-syntax-ns#"
   xmlns:svg="http://www.w3.org/2000/svg"
   xmlns="http://www.w3.org/2000/svg"
   xmlns:sodipodi="http://sodipodi.sourceforge.net/DTD/sodipodi-0.dtd"
   xmlns:inkscape="http://www.inkscape.org/namespaces/inkscape"
   width="1280"
   height="600"
   viewBox="0 0 1280 600"
   id="svg8188"
   version="1.1"
   inkscape:version="0.92.4 (5da689c313, 2019-01-14)"
   sodipodi:docname="storyline-0.svg">
  <defs
     id="defs8190" />
  <sodipodi:namedview
     id="base"
     pagecolor="#ffffff"
     bordercolor="#666666"
     borderopacity="1.0"
     inkscape:pageopacity="0.0"
     inkscape:pageshadow="2"
     inkscape:zoom="0.7071068"
     inkscape:cx="663.73761"
     inkscape:cy="253.98943"
     inkscape:document-units="px"
     inkscape:current-layer="g9572"
     showgrid="false"
     units="px"
     inkscape:window-width="1920"
     inkscape:window-height="1017"
     inkscape:window-x="-8"
     inkscape:window-y="-8"
     inkscape:window-maximized="1"
     showguides="false" />
  <metadata
     id="metadata8193">
    <rdf:RDF>
      <cc:Work
         rdf:about="">
        <dc:format>image/svg+xml</dc:format>
        <dc:type
           rdf:resource="http://purl.org/dc/dcmitype/StillImage" />
        <dc:title />
      </cc:Work>
    </rdf:RDF>
  </metadata>
  <g
     inkscape:label="Layer 1"
     inkscape:groupmode="layer"
     id="layer1"
     transform="translate(0,-452.36216)">
    <g
       transform="matrix(0.92123765,0,0,0.92123765,1290.3552,-2117.7523)"
       id="g9572">
      <path
         style="fill:none;stroke:#000000;stroke-width:5.42748117;stroke-linecap:round;stroke-linejoin:round;stroke-opacity:1;stroke-miterlimit:4;stroke-dasharray:none"
         d="m -1299.3576,2896.1785 c 2.0469,-0.5117 4.0937,-2.0468 6.1405,-1.5351 0.9929,0.2482 -0.2482,2.0774 0,3.0702 0.5551,2.2201 2.2204,4.0158 3.0703,6.1405 1.2019,3.0049 2.0468,6.1405 3.0702,9.2108 0.5117,1.5351 1.0234,3.0702 1.5352,4.6053 0.5117,1.5352 1.3062,3.0035 1.5351,4.6054 0.2894,2.0263 -0.2895,4.1142 0,6.1405 0.2288,1.6019 1.0234,3.0702 1.5351,4.6054 0.5117,1.5351 0.9342,3.1029 1.5351,4.6053 0.425,1.0624 1.2576,1.9602 1.5352,3.0703 0,10.1827 -0.7237,-2.171 1.5351,4.6054 0.3236,0.9709 -0.4577,2.1548 0,3.0702 0.2288,0.4577 1.1733,-0.3618 1.5351,0 0.3618,0.3618 -0.3618,1.1733 0,1.5351 0.3618,0.3619 1.3063,0.4577 1.5351,0 0.4577,-0.9153 -0.2482,-2.0774 0,-3.0702 0.2775,-1.1101 1.0234,-2.0468 1.5351,-3.0703 1.0235,-2.0468 2.0469,-4.0936 3.0703,-6.1405 1.0234,-2.0468 2.5152,-3.9204 3.0702,-6.1405 0.4965,-1.9857 -0.4014,-4.1334 0,-6.1404 0.9783,-4.8911 5.7985,-15.8895 7.6756,-19.9566 1.8198,-3.9429 6.4205,-13.166 9.2108,-16.8864 1.3026,-1.7368 3.4011,-2.799 4.6054,-4.6054 0.8976,-1.3464 0.7025,-3.2178 1.5351,-4.6053 0.7446,-1.2411 2.0468,-2.0469 3.0702,-3.0703 0.5117,-0.5117 0.8879,-1.2115 1.5352,-1.5351 0.4576,-0.2289 1.0234,0 1.5351,0 0.5117,0 1.2513,-0.4258 1.5351,0 1.6796,2.5194 2.8845,12.7016 3.0702,13.8161 0.5118,3.0702 1.0235,6.1405 1.5352,9.2107 0.5117,3.0703 1.2766,6.1089 1.5351,9.2108 0.255,3.0596 -0.3055,6.1557 0,9.2107 0.2099,2.0994 1.0234,4.0937 1.5351,6.1405 0.5117,2.0468 0.9555,4.1119 1.5351,6.1405 0.8891,3.1118 2.2854,6.071 3.0703,9.2107 0.4412,1.7649 -0.7881,4.5642 0,6.1405 0.2288,0.4577 1.0234,0 1.5351,0 0.5117,0 1.1733,0.3619 1.5351,0 0.3619,-0.3618 -0.2838,-1.1093 0,-1.5351 0.8029,-1.2042 2.3256,-1.8292 3.0703,-3.0702 0.8325,-1.3876 1.0234,-3.0703 1.5351,-4.6054 1.0234,-1.5351 2.0924,-3.0408 3.0703,-4.6054 4.6855,-7.4968 8.9381,-15.7099 13.8161,-23.0268 1.4192,-2.1289 3.0702,-4.0937 4.6053,-6.1405 1.5352,-2.0469 3.1183,-4.0585 4.6054,-6.1405 1.0724,-1.5013 1.7657,-3.3008 3.0703,-4.6054 1.3046,-1.3046 3.3007,-1.7656 4.6053,-3.0702 6.1405,-6.1405 -3.5819,-0.5117 4.6054,-4.6054"
         id="path1018"
         inkscape:connector-curvature="0" />
      <path
         style="fill:none;stroke:#000000;stroke-width:5.42748117;stroke-linecap:round;stroke-linejoin:round;stroke-opacity:1;stroke-miterlimit:4;stroke-dasharray:none"
         d="m -1178.0828,2882.3624 c 6.6522,-2.0468 13.0207,-5.5625 19.9566,-6.1405 1.6126,-0.1344 -0.7026,3.2178 -1.5351,4.6054 -0.7447,1.2411 -2.3256,1.8291 -3.0703,3.0702 -0.8325,1.3876 -0.9669,3.0903 -1.5351,4.6054 -0.9676,2.5802 -2.0468,5.1171 -3.0702,7.6756 -1.0235,3.0703 -1.9643,6.1693 -3.0703,9.2108 -0.9417,2.5897 -2.1285,5.0858 -3.0702,7.6756 -4.1079,11.2965 -2.2643,6.3513 -4.6054,16.8863 -0.4577,2.0596 -1.2734,4.047 -1.5351,6.1405 -0.2539,2.031 0,4.0937 0,6.1405 0,3.0703 0,6.1405 0,9.2108 0,1.0234 0,2.0468 0,3.0702 0,0.5117 0.5117,1.5351 0,1.5351 -0.5117,0 0,-1.0234 0,-1.5351 0,-0.5117 0,-1.0234 0,-1.5351"
         id="path1020"
         inkscape:connector-curvature="0" />
      <path
         style="fill:none;stroke:#000000;stroke-width:5.42748117;stroke-linecap:round;stroke-linejoin:round;stroke-opacity:1;stroke-miterlimit:4;stroke-dasharray:none"
         d="m -1179.6179,2952.9781 c 1.0234,-5.6288 1.2611,-11.4589 3.0702,-16.8864 0.3619,-1.0855 2.1182,-0.9004 3.0703,-1.5351 1.8063,-1.2043 2.8685,-3.3028 4.6053,-4.6054 0.9154,-0.6865 2.1549,-0.8486 3.0703,-1.5351 1.1578,-0.8684 1.9124,-2.2018 3.0702,-3.0702 3.3471,-2.5103 11.1929,-3.4173 15.3513,-4.6054 1.5559,-0.4446 3.0186,-1.2178 4.6053,-1.5351 1.5053,-0.3011 3.0703,0 4.6054,0 0.5117,0 1.1733,-0.3619 1.5351,0 2.3771,2.377 1.5351,7.8051 1.5351,10.7458 0,1.5351 0,3.0703 0,4.6054 0,1.0234 0.2483,2.0774 0,3.0702 -0.2775,1.1101 -1.2576,1.9602 -1.5351,3.0703 -1.3375,5.3502 2.4385,1.0529 -1.5351,7.6756 -0.7446,1.2411 -2.5327,1.7264 -3.0702,3.0703 -0.5702,1.4253 0.5701,3.18 0,4.6053 -0.5376,1.3438 -2.2019,1.9124 -3.0703,3.0703 -2.8363,3.7818 -0.6661,4.4025 -1.5351,6.1405 -0.3236,0.6472 -1.0234,1.0234 -1.5351,1.5351"
         id="path1022"
         inkscape:connector-curvature="0" />
      <path
         style="fill:none;stroke:#000000;stroke-width:5.42748117;stroke-linecap:round;stroke-linejoin:round;stroke-opacity:1;stroke-miterlimit:4;stroke-dasharray:none"
         d="m -1095.1861,2937.6268 c -1.7526,-7.8674 -0.3617,-6.1405 -6.1405,-6.1405 -1.0234,0 -2.2188,-0.5676 -3.0703,0 -0.952,0.6347 -0.726,2.2612 -1.5351,3.0703 -0.8091,0.8091 -2.1549,0.8486 -3.0703,1.5351 -1.1578,0.8684 -2.0468,2.0469 -3.0702,3.0703 -1.0234,1.0234 -2.0468,2.0468 -3.0702,3.0702 -1.5352,1.5351 -3.6345,2.6636 -4.6054,4.6054 -2.3715,4.7428 -1.5351,13.0666 -1.5351,18.4215 0,2.5585 0,5.117 0,7.6756 0,0.5117 -0.3619,1.1733 0,1.5351 0.3618,0.3618 1.0234,0 1.5351,0 1.0234,0 2.0468,0 3.0702,0 3.0703,0 6.1405,0 9.2108,0 2.0468,0 4.1334,0.4014 6.1405,0 1.5867,-0.3173 3.1029,-0.9342 4.6053,-1.5351 1.0624,-0.425 2.0469,-1.0234 3.0703,-1.5351 1.0234,-0.5117 2.1549,-0.8486 3.0702,-1.5352 1.1579,-0.8684 1.9124,-2.2018 3.0703,-3.0702 0.9153,-0.6865 2.2611,-0.7261 3.0702,-1.5351 1.2001,-1.2001 2.6706,-6.6765 3.0703,-7.6757 0.4249,-1.0623 1.3107,-1.9482 1.5351,-3.0702 0.6021,-3.0106 -0.6021,-6.2001 0,-9.2107 1.9928,-9.9641 1.5351,3.4212 1.5351,-6.1405 0,-3.582 0,-7.1639 0,-10.7459 0,-0.5117 0.3618,-1.1733 0,-1.5351 -0.3618,-0.3618 -1.0234,0 -1.5351,0"
         id="path1024"
         inkscape:connector-curvature="0" />
      <path
         style="fill:none;stroke:#000000;stroke-width:5.42748117;stroke-linecap:round;stroke-linejoin:round;stroke-opacity:1;stroke-miterlimit:4;stroke-dasharray:none"
         d="m -1023.0353,2934.5566 c -2.951,1.2042 -6.2002,-0.6021 -9.2108,0 -1.5867,0.3173 -3.0702,1.0234 -4.6053,1.5351 -1.5352,0.5117 -3.0495,1.0906 -4.6054,1.5351 -2.0287,0.5797 -4.165,0.7944 -6.1405,1.5352 -2.1427,0.8035 -4.0371,2.1688 -6.1405,3.0702 -3.4951,1.4979 -4.7107,1.0937 -7.6756,3.0703 -0.6022,0.4014 -1.0234,1.0234 -1.5351,1.5351 -4.0075,4.0075 -3.0703,5.7764 -3.0703,10.7458 0,1.0235 -0.5677,2.2188 0,3.0703 0.6347,0.952 2.1182,0.9004 3.0703,1.5351 0.6021,0.4014 0.9329,1.1337 1.5351,1.5351 0.952,0.6347 2.1182,0.9005 3.0702,1.5352 0.4458,0.2972 2.8548,3.0163 3.0703,3.0702 1.4893,0.3723 3.1,-0.3011 4.6053,0 2.244,0.4488 3.9695,2.3466 6.1405,3.0703 0.7718,0.2572 8.8098,0 9.2108,0 3.2165,0 4.6968,0.4507 7.6756,-1.5352 0.6021,-0.4014 1.2115,-0.8878 1.5351,-1.5351 0.2289,-0.4577 -0.1241,-1.0387 0,-1.5351 0.3925,-1.5699 1.2178,-3.0186 1.5351,-4.6054 0.2007,-1.0035 0,-2.0468 0,-3.0702 0,-3.582 0,-7.1639 0,-10.7459"
         id="path1026"
         inkscape:connector-curvature="0" />
      <path
         style="fill:none;stroke:#000000;stroke-width:5.42748117;stroke-linecap:round;stroke-linejoin:round;stroke-opacity:1;stroke-miterlimit:4;stroke-dasharray:none"
         d="m -1023.0353,2934.5566 c 7.6756,4.0937 15.5675,7.8054 23.0268,12.281 0.4388,0.2633 0,1.0234 0,1.5351 0,3.0703 0,6.1405 0,9.2107 0,9.7225 0,19.4449 0,29.1674 0,2.5585 0,5.1171 0,7.6756 0,3.0703 0.27797,6.1531 0,9.2108 -0.2362,2.5984 -1.0234,5.117 -1.5351,7.6756 -0.5117,2.5585 -1.0234,5.117 -1.5351,7.6756 -0.5117,1.5351 -1.2178,3.0186 -1.5352,4.6054 -0.301,1.5053 0,3.0702 0,4.6053 0,0.5117 0,2.0469 0,1.5352 0,-1.5352 0,-3.0703 0,-4.6054"
         id="path1028"
         inkscape:connector-curvature="0" />
      <path
         style="fill:none;stroke:#000000;stroke-width:5.42748117;stroke-linecap:round;stroke-linejoin:round;stroke-opacity:1;stroke-miterlimit:4;stroke-dasharray:none"
         d="m -987.7275,2937.6268 c 1.53512,-2.0468 2.47654,-4.7212 4.60537,-6.1405 1.2773,-0.8515 3.10006,0.3011 4.60537,0 1.12199,-0.2243 1.9602,-1.2576 3.07025,-1.5351 0.99286,-0.2482 2.07738,0.2482 3.07024,0 1.11005,-0.2775 1.94826,-1.3107 3.07025,-1.5351 1.50531,-0.3011 3.07025,0 4.60537,0 3.07025,0 6.14049,0 9.21074,0 1.02341,0 2.04683,0 3.07025,0 0.5117,0 1.17329,-0.3618 1.53512,0 2.89917,2.8992 0.72444,2.8978 1.53513,6.1405 0.2775,1.11 1.2576,1.9602 1.53512,3.0702 0.2482,0.9929 0,2.0469 0,3.0703 0,1.5351 0,3.0702 0,4.6054 0,1.5351 0,3.0702 0,4.6053 0,1.5352 0.25236,3.0912 0,4.6054 -0.26603,1.5961 -1.2691,3.0092 -1.53512,4.6054 -0.25238,1.5142 0.57012,3.18 0,4.6053 -0.53753,1.3438 -2.20186,1.9124 -3.07025,3.0703 -2.83135,3.7751 0.0948,3.007 -4.60537,6.1405 -0.42577,0.2838 -1.04968,-0.1618 -1.53513,0 -1.54382,0.5146 -4.59668,2.5556 -6.14049,3.0702 -0.45815,0.1527 -10.61368,0.044 -10.74586,0 -0.68654,-0.2288 -0.88786,-1.2115 -1.53513,-1.5351 -0.45768,-0.2288 -1.02342,0 -1.53512,0 -1.02342,-0.5117 -2.11821,-0.9004 -3.07025,-1.5351 -0.60213,-0.4014 -0.88786,-1.2115 -1.53512,-1.5351 -1.2281,-0.6141 -3.37727,0.614 -4.60537,0 -4.09367,-2.0469 4.60537,-1.5352 -1.53513,-1.5352"
         id="path1030"
         inkscape:connector-curvature="0" />
      <path
         style="fill:none;stroke:#000000;stroke-width:5.42748117;stroke-linecap:round;stroke-linejoin:round;stroke-opacity:1;stroke-miterlimit:4;stroke-dasharray:none"
         d="m -880.26887,2929.9512 c -7.41124,-3.0372 -15.38866,-3.9581 -23.02685,-6.1405 -1.55589,-0.4445 -3.01863,-1.2177 -4.60537,-1.5351 -2.00708,-0.4014 -4.09365,0 -6.14049,0 -0.51171,0 -1.02341,0 -1.53513,0 -0.5117,0 -1.17329,-0.3618 -1.53512,0 -0.149,0.149 0,7.0906 0,7.6756 0,1.5351 0,3.0703 0,4.6054 0,1.0234 -0.45769,2.1549 0,3.0702 0.64726,1.2946 2.16611,1.9401 3.07025,3.0703 6.28106,7.8513 -0.1629,1.2908 6.14049,10.7459 0.80284,1.2042 2.20186,1.9123 3.07025,3.0702 0.68652,0.9154 0.8486,2.1549 1.53512,3.0702 0.8684,1.1579 2.26742,1.866 3.07025,3.0703 0.28385,0.4258 -0.22884,1.0774 0,1.5351 0.32363,0.6473 1.1337,0.933 1.53512,1.5351 0.6347,0.9521 1.17329,1.9848 1.53513,3.0703 0.0659,0.1975 0.0636,4.4782 0,4.6054 -1.69713,3.3942 -0.95277,0.4763 -3.07025,1.5351 -1.41086,0.7054 -4.97565,5.7522 -6.1405,6.1405 -0.97089,0.3236 -2.04682,0 -3.07024,0 -1.53513,0.5117 -3.10294,0.9341 -4.60537,1.5351 -2.12475,0.8499 -3.9204,2.5152 -6.1405,3.0702 -0.99286,0.2483 -2.04683,0 -3.07024,0 -1.02341,0 -2.04683,0 -3.07025,0 -3.07025,0 -6.1405,0 -9.21074,0"
         id="path1032"
         inkscape:connector-curvature="0" />
      <path
         style="fill:none;stroke:#000000;stroke-width:5.42748117;stroke-linecap:round;stroke-linejoin:round;stroke-opacity:1;stroke-miterlimit:4;stroke-dasharray:none"
         d="m -731.36189,2876.2219 c 2.04682,-1.0234 3.92039,-2.5152 6.14049,-3.0702 1.98572,-0.4965 4.10947,0.2538 6.14049,0 2.09354,-0.2617 4.07164,-1.1214 6.1405,-1.5352 3.05215,-0.6104 6.20782,-0.7161 9.21074,-1.5351 2.65853,-0.725 5.01708,-2.3452 7.67562,-3.0702 3.00291,-0.819 6.15858,-0.9247 9.21074,-1.5352 2.06884,-0.4137 4.07164,-1.1213 6.14048,-1.5351 3.05216,-0.6104 6.1586,-0.9247 9.21074,-1.5351 6.57355,-1.3147 6.66655,-2.1766 13.81612,-3.0703 1.52327,-0.1904 3.10006,0.3011 4.60537,0 8.81983,-1.7639 -0.44058,-1.5351 4.60537,-1.5351"
         id="path1034"
         inkscape:connector-curvature="0" />
      <path
         style="fill:none;stroke:#000000;stroke-width:5.42748117;stroke-linecap:round;stroke-linejoin:round;stroke-opacity:1;stroke-miterlimit:4;stroke-dasharray:none"
         d="m -762.06436,2979.0752 c 6.65219,0 13.3044,0 19.9566,0 2.04683,0 4.10947,0.2539 6.1405,0 2.09353,-0.2617 4.07163,-1.1214 6.14049,-1.5351 3.05215,-0.6105 6.14835,-0.9784 9.21074,-1.5352 2.56712,-0.4667 5.07712,-1.2989 7.67562,-1.5351 3.05763,-0.278 6.15573,0.3055 9.21074,0 2.09935,-0.2099 4.08091,-1.0774 6.14049,-1.5351 2.54708,-0.566 5.12854,-0.9691 7.67562,-1.5351 4.11916,-0.9154 8.10375,-2.4735 12.28098,-3.0703 1.5197,-0.2171 3.09114,0.2524 4.60537,0 10.18164,-1.6969 1.37736,-1.5351 6.14049,-1.5351"
         id="path1036"
         inkscape:connector-curvature="0" />
      <path
         style="fill:none;stroke:#000000;stroke-width:5.42748117;stroke-linecap:round;stroke-linejoin:round;stroke-opacity:1;stroke-miterlimit:4;stroke-dasharray:none"
         d="m -700.65942,2980.6103 c 0,-4.0937 0,-8.1873 0,-12.281 0,-1.0234 -0.20071,-2.0667 0,-3.0702 2.39149,-11.9575 1.16736,4.8449 3.07024,-12.281 0.22604,-2.0343 -0.25388,-4.1095 0,-6.1405 0.26169,-2.0936 1.12136,-4.0717 1.53513,-6.1405 0.61042,-3.0522 0.7802,-6.1911 1.53512,-9.2108 0.78492,-3.1397 2.11848,-6.1175 3.07025,-9.2107 1.09554,-3.5605 1.8922,-7.2117 3.07025,-10.7459 1.7428,-5.2284 4.20535,-10.1908 6.14048,-15.3512 0.56818,-1.5151 1.2691,-3.0092 1.53512,-4.6054 1.43741,-8.6243 -1.75789,-1.0895 1.53513,-7.6756"
         id="path1038"
         inkscape:connector-curvature="0" />
      <path
         style="fill:none;stroke:#000000;stroke-width:5.42748117;stroke-linecap:round;stroke-linejoin:round;stroke-opacity:1;stroke-miterlimit:4;stroke-dasharray:none"
         d="m -428.94258,2977.5401 c -4.75837,-2.2256 -6.69335,-7.7065 -10.74586,-10.7459 -1.98202,-1.4865 -8.53159,-4.0518 -10.74587,-4.6054 -0.99286,-0.2482 -2.04684,0 -3.07025,0 -3.07024,0 -6.14049,0 -9.21074,0 -2.04682,0 -4.09366,0 -6.14049,0 -1.02342,0 -2.06671,-0.2007 -3.07025,0 -3.76464,0.7529 -7.41725,2.9411 -10.74586,4.6054 -1.02342,0.5117 -2.08909,0.9464 -3.07025,1.5351 -1.58207,0.9493 -3.0233,2.121 -4.60537,3.0703 -4.78298,2.8697 -2.01739,0.079 -7.67562,4.6053 -1.13017,0.9042 -2.04683,2.0469 -3.07024,3.0703 -1.02342,1.0234 -2.16612,1.9401 -3.07025,3.0702 -2.46996,3.0875 -3.01105,4.487 -4.60537,7.6756 -0.51171,1.0235 -1.02341,2.0469 -1.53513,3.0703 -0.5117,1.0234 -1.31072,1.9482 -1.53512,3.0702 -0.50177,2.5089 0,5.1171 0,7.6757 0,2.5585 -0.50177,5.1667 0,7.6756 0.2244,1.122 1.02342,2.0468 1.53512,3.0702 0.51172,1.0234 0.8486,2.1549 1.53513,3.0703 0.0891,0.1188 5.97684,6.0995 6.14049,6.1405 1.48929,0.3723 3.11608,-0.3724 4.60537,0 0.70206,0.1755 0.8486,1.3062 1.53513,1.5351 0.97089,0.3236 2.04682,0 3.07024,0 1.02342,0 2.04683,0 3.07025,0 2.55854,0 5.11707,0 7.67562,0 1.02342,0 2.21871,0.5677 3.07024,0 0.95204,-0.6347 0.72604,-2.2612 1.53513,-3.0703 0.80907,-0.8091 2.04683,-1.0234 3.07024,-1.5351 1.53513,-1.0234 3.30078,-1.7656 4.60538,-3.0702 0.80907,-0.8091 0.82033,-2.1768 1.53512,-3.0703 1.35621,-1.6953 3.07025,-3.0702 4.60537,-4.6054 1.02341,-2.0468 1.74012,-4.2783 3.07025,-6.1404 1.26186,-1.7667 3.30277,-2.8686 4.60537,-4.6054 1.79024,-2.387 3.07024,-5.1171 4.60537,-7.6756 1.53512,-2.5586 3.39355,-4.9491 4.60537,-7.6757 0.85688,-1.9279 1.02341,-4.0936 1.53512,-6.1404 0.51171,-2.0469 1.07744,-4.081 1.53513,-6.1405 0.56601,-2.5471 0.90229,-5.1444 1.53512,-7.6757 0.78492,-3.1397 2.53819,-6.0184 3.07025,-9.2107 0.25236,-1.5142 -0.25238,-3.0911 0,-4.6054 0.26602,-1.5961 1.26909,-3.0092 1.53512,-4.6053 0.25236,-1.5143 0,-3.0703 0,-4.6054 0,-1.5351 0,-3.0703 0,-4.6054 0,-7.6756 0,-15.3512 0,-23.0268 0,-3.582 0,-7.1639 0,-10.7459 0,-1.5351 0,-3.0702 0,-4.6054 0,-0.5117 -0.51171,-1.5351 0,-1.5351 0.5117,0 0,1.0234 0,1.5351 0,1.0234 0,2.0469 0,3.0703 0,11.2354 0.24821,-10.406 -1.53512,9.2107 -0.32431,3.5673 0,7.1639 0,10.7459 0,15.8629 0,31.7259 0,47.5888 0,6.6522 0,13.3044 0,19.9566 0,3.0703 -0.25498,6.1511 0,9.2108 0.47048,5.6459 1.73695,10.018 3.07024,15.3512 0.51171,2.0468 1.02341,4.0936 1.53513,6.1405 0,1.5351 -0.30107,3.1 0,4.6054 0.22439,1.1219 1.11017,2.0078 1.53512,3.0702 0.60097,1.5024 1.14265,3.0355 1.53512,4.6054 0.12411,0.4964 -0.22884,1.0774 0,1.5351 0.94848,1.8969 1.48213,1.5351 3.07025,1.5351"
         id="path1040"
         inkscape:connector-curvature="0" />
      <path
         style="fill:none;stroke:#000000;stroke-width:5.42748117;stroke-linecap:round;stroke-linejoin:round;stroke-opacity:1;stroke-miterlimit:4;stroke-dasharray:none"
         d="m -375.21327,3005.1723 c 0,5.117 0,10.2341 0,15.3512 0,0.5117 0,1.0234 0,1.5351 0,0.5117 -0.22883,1.0775 0,1.5352 0.32364,0.6472 1.02342,1.0234 1.53513,1.5351"
         id="path1042"
         inkscape:connector-curvature="0" />
      <path
         style="fill:none;stroke:#000000;stroke-width:5.42748117;stroke-linecap:round;stroke-linejoin:round;stroke-opacity:1;stroke-miterlimit:4;stroke-dasharray:none"
         d="m -370.6079,2914.6 -3.07024,13.8161"
         id="path1044"
         inkscape:connector-curvature="0" />
      <path
         style="fill:none;stroke:#000000;stroke-width:5.42748117;stroke-linecap:round;stroke-linejoin:round;stroke-opacity:1;stroke-miterlimit:4;stroke-dasharray:none"
         d="m -373.67816,3025.1289 c 7.16392,1.0234 14.27349,3.5858 21.49175,3.0702 1.53122,-0.1094 0,-3.0702 0,-4.6053 0,-1.5352 0,-3.0703 0,-4.6054 0,-1.5351 -0.25238,-3.0912 0,-4.6054 0.26602,-1.5961 1.02342,-3.0702 1.53512,-4.6054 5.24926,-15.7478 -2.34421,8.6508 1.53512,-10.7458 1.61551,-8.0775 3.16329,-8.6525 6.1405,-15.3513 2.23834,-5.0362 4.20535,-10.1908 6.14049,-15.3512 0.56818,-1.5151 0.70259,-3.2178 1.53513,-4.6054 0.74464,-1.241 2.04682,-2.0468 3.07024,-3.0702 0.51171,-0.5117 0.933,-1.1337 1.53513,-1.5351 0.95203,-0.6347 2.26116,-0.7261 3.07024,-1.5352 0.36184,-0.3618 -0.36183,-1.1732 0,-1.5351 0.21649,-0.2165 4.29048,-0.1574 4.60537,0 0.64727,0.3237 1.02341,1.0234 1.53513,1.5351 0.5117,0.5117 1.30627,0.8486 1.53512,1.5352 0.32363,0.9709 -0.5677,2.2187 0,3.0702 5.87034,2.9352 1.38446,-0.452 3.07025,4.6054 0.45767,1.373 2.61252,1.6972 3.07027,3.0702 0.32359,0.9709 -0.3237,2.0994 0,3.0703 0.22882,0.6865 1.13369,0.933 1.53511,1.5351 1.16962,1.7544 2.71363,5.8924 3.07021,7.6756 0.20071,1.0036 0,2.0468 0,3.0703 0,1.5351 0,3.0702 0,4.6053 0,2.0469 0,4.0937 0,6.1405 0,1.0235 0,2.0469 0,3.0703 0,0.5117 0.12408,1.0387 0,1.5351 -0.3924,1.5698 -1.14259,3.0355 -1.5351,4.6054 -0.13927,0.5572 0.188,4.4173 0,4.6053 -0.3618,0.3619 -1.17332,-0.3618 -1.53511,0 -0.3618,0.3619 0.36179,1.1733 0,1.5352 -3.17624,3.1762 0.12418,-4.8537 -3.07026,1.5351 -0.22885,0.4577 0.36184,1.1733 0,1.5351 -0.36183,0.3618 -1.07745,-0.2288 -1.53512,0 -0.64727,0.3236 -0.93301,1.1337 -1.53513,1.5351 -0.77307,3.3822 -3.15804,0.8115 -4.60537,1.5352 -0.64726,0.3236 -0.933,1.1337 -1.53512,1.5351 0.17482,2.9082 -3.58196,1.0234 -4.60537,1.5351 -0.64727,0.3236 -0.88786,1.2115 -1.53512,1.5351 -0.90576,0.4529 -3.54947,-0.3519 -4.60537,0 -1.0855,0.3619 -1.98476,1.1733 -3.07025,1.5352 -0.48545,0.1618 -1.17329,-0.3619 -1.53512,0 -2.04683,2.0468 2.55854,1.5351 -1.53513,1.5351 -1.53512,0 -3.07025,0 -4.60537,0 -0.5117,0 -1.53512,0.5117 -1.53512,0 0,-0.5117 1.02342,0 1.53512,0 3.07025,0 6.1405,0 9.21074,0 0.98786,0 9.70698,0.2597 10.74587,0 2.2201,-0.555 3.96949,-2.3466 6.14049,-3.0703 0.48544,-0.1618 1.07744,0.2289 1.53512,0 0.64727,-0.3236 1.02341,-1.0234 1.53513,-1.5351 1.02341,-1.0234 1.91237,-2.2018 3.07027,-3.0702 0.91529,-0.6866 2.43553,-0.5831 3.07022,-1.5352 0.56771,-0.8515 -0.45765,-2.1548 0,-3.0702 0.64728,-1.2945 2.42293,-1.7757 3.07021,-3.0703 0.45776,-0.9153 -0.24814,-2.0773 0,-3.0702 0.27757,-1.1101 1.02341,-2.0468 1.53511,-3.0702 0.51171,-1.5352 1.1427,-3.0356 1.53522,-4.6054 0.63274,-2.5313 0.90226,-5.1443 1.53511,-7.6756 0.39241,-1.5699 1.26905,-3.0093 1.53511,-4.6054 0.25238,-1.5142 -0.25238,-3.0911 0,-4.6054 0.64988,-3.8996 2.42033,-5.3111 3.07021,-9.2107 0.25238,-1.5143 0,-3.0703 0,-4.6054 0,-1.5351 0,-3.0702 0,-4.6054 0,-5.117 0,-10.2341 0,-15.3512 0,-1.5351 0,-3.0702 0,-4.6054 0,-2.0468 0.28951,-4.1142 0,-6.1405 -0.22882,-1.6019 -1.26905,-3.0092 -1.5351,-4.6053 -0.25238,-1.5143 0.2171,-3.0857 0,-4.6054 -0.29841,-2.0886 -1.23671,-4.0519 -1.53511,-6.1405 -0.2171,-1.5197 0.30101,-3.1 0,-4.6054 -0.22437,-1.122 -1.25766,-1.9602 -1.53511,-3.0702 -0.24825,-0.9929 0.32358,-2.0994 0,-3.0703 -0.22882,-0.6865 -1.30629,-0.8485 -1.53511,-1.5351 -0.3237,-0.9709 0,-2.0468 0,-3.0702 0,-0.5117 0,-2.0469 0,-1.5351 0,6.6522 0,13.3044 0,19.9566 0,2.0468 0.25379,4.1094 0,6.1404 -0.26171,2.0936 -1.32528,4.0412 -1.53522,6.1405 -0.30546,3.055 0,6.1405 0,9.2108 0,8.1873 0,16.3746 0,24.562 0,3.0702 0,6.1405 0,9.2107 0,2.5585 -0.25455,5.1298 0,7.6756 0.25965,2.5963 1.24702,5.0824 1.53522,7.6756 0.226,2.0343 0,4.0937 0,6.1405 0,5.6288 0,11.2576 0,16.8864 0,0.9626 -0.18964,5.9509 0,6.1405 0.3618,0.3618 1.1732,-0.3619 1.53511,0 0.36179,0.3618 -0.22882,1.0774 0,1.5351 0.32358,0.6473 1.0234,1.0234 1.53511,1.5351"
         id="path1046"
         inkscape:connector-curvature="0" />
      <path
         style="fill:none;stroke:#000000;stroke-width:5.42748117;stroke-linecap:round;stroke-linejoin:round;stroke-opacity:1;stroke-miterlimit:4;stroke-dasharray:none"
         d="m -301.52732,3028.1991 c 5.62873,-1.5351 11.40324,-2.6115 16.8863,-4.6053 0.48099,-0.1749 0,-1.0235 0,-1.5352 0,-3.0702 0,-6.1405 0,-9.2107 0,-1.5351 -0.30101,-3.1001 0,-4.6054 0.71686,-3.5844 2.35336,-2.5561 3.07033,-6.1405 0.30101,-1.5053 -0.30112,-3.1 0,-4.6053 0.35083,-1.7546 4.1403,-6.9006 4.60532,-7.6757 1.47031,-2.4505 2.08231,-5.9935 4.60533,-7.6756 0.95209,-0.6347 1.98483,-1.1733 3.07033,-1.5351 0.48543,-0.1618 1.1732,0.3618 1.5351,0 0.3618,-0.3618 -0.3619,-1.1733 0,-1.5351 0.3618,-0.3619 1.02341,0 1.53511,0 0.50411,0 4.37662,-0.1525 4.60533,0 4.64755,-3.7881 2.64058,4.1756 3.07033,4.6053 0.80902,0.8091 2.38364,0.6198 3.07021,1.5352 5.98293,7.9772 0.17976,2.0744 1.53511,6.1405 0.7237,2.171 2.51521,3.9204 3.07022,6.1405 0.25976,1.0388 0,9.758 0,10.7458 0,8.1873 0,16.3747 0,24.562"
         id="path1048"
         inkscape:connector-curvature="0" />
      <path
         style="fill:none;stroke:#000000;stroke-width:5.42748117;stroke-linecap:round;stroke-linejoin:round;stroke-opacity:1;stroke-miterlimit:4;stroke-dasharray:none"
         d="m -183.32287,2928.4161 c -1.0234,2.0468 -2.04681,4.0937 -3.07021,6.1405 -0.51171,0 -1.17332,-0.3618 -1.53511,0 -0.12331,0.1233 0,6.4673 0,7.6756"
         id="path1050"
         inkscape:connector-curvature="0" />
      <path
         style="fill:none;stroke:#000000;stroke-width:5.42748117;stroke-linecap:round;stroke-linejoin:round;stroke-opacity:1;stroke-miterlimit:4;stroke-dasharray:none"
         d="m -143.4096,2934.5566 c -3.33617,13.3444 0.23457,0.9485 -3.07033,9.2107 -0.60093,1.5025 -0.81141,3.1581 -1.53511,4.6054 -0.82508,1.6502 -2.15482,3.0035 -3.07022,4.6054 -12.77759,22.3608 4.00592,-6.4766 -4.60532,10.7458 -1.3344,2.6688 -3.27104,5.0069 -4.60544,7.6757 -1.23236,2.4647 -2.01034,5.1319 -3.07021,7.6756 -7.82318,18.7756 -1.86152,2.596 -7.67566,21.4917 -0.95176,3.0932 -2.28529,6.071 -3.07021,9.2107 -0.75497,3.0197 -0.85993,6.1723 -1.53511,9.2108 -0.35105,1.5796 -1.21782,3.0186 -1.53511,4.6054 -0.30112,1.5053 0,3.0702 0,4.6053 0,0.5117 -0.22882,1.0775 0,1.5352 0.32358,0.6472 0.88783,1.2114 1.53511,1.5351 0.45764,0.2288 1.0234,0 1.53511,0 0.5117,0 1.0234,0 1.5351,0 2.55852,0 5.11714,0 7.67566,0"
         id="path1052"
         inkscape:connector-curvature="0" />
      <path
         style="fill:none;stroke:#000000;stroke-width:5.42748117;stroke-linecap:round;stroke-linejoin:round;stroke-opacity:1;stroke-miterlimit:4;stroke-dasharray:none"
         d="m -160.29602,2976.0049 c 2.04681,-0.5117 4.05943,-1.1882 6.14055,-1.5351 2.01891,-0.3365 4.09362,0 6.14043,0 5.11714,0 10.23417,0 15.35131,0"
         id="path1054"
         inkscape:connector-curvature="0" />
      <path
         style="fill:none;stroke:#000000;stroke-width:5.42748117;stroke-linecap:round;stroke-linejoin:round;stroke-opacity:1;stroke-miterlimit:4;stroke-dasharray:none"
         d="m -1284.0063,3209.3437 c -1.5351,-2.0468 -3.0703,-4.0937 -4.6054,-6.1405 -0.5117,-1.5351 -0.7026,-3.2178 -1.5351,-4.6054 -0.7447,-1.2411 -2.423,-1.7757 -3.0703,-3.0702 -0.048,-0.095 -2.9764,-11.9995 -3.0702,-12.281 -2.5181,-7.5542 -4.259,-8.733 -6.1405,-16.8864 -0.8136,-3.5256 -0.9849,-7.1696 -1.5351,-10.7458 -1.4447,-9.3905 -2.4601,-12.6539 -3.0703,-23.0269 -0.2404,-4.0866 0,-8.1873 0,-12.281 0,-3.5819 -0.5065,-7.1999 0,-10.7458 1.7841,-12.4882 7.9444,-17.3568 13.8161,-27.6323 2.2708,-3.9738 3.8344,-8.3276 6.1405,-12.2809 1.2892,-2.2101 3.0703,-4.0937 4.6054,-6.1405 1.5351,-2.0469 2.7962,-4.3314 4.6054,-6.1405 1.3046,-1.3046 3.0702,-2.0469 4.6053,-3.0703 6.5095,-4.3396 2.9552,-2.2451 10.7459,-6.1405 2.0468,-1.0234 3.9066,-2.5738 6.1405,-3.0702 2.4976,-0.555 5.1368,0.3173 7.6756,0 1.6057,-0.2007 3.0187,-1.2178 4.6054,-1.5351 1.0035,-0.2007 2.0468,0 3.0702,0 2.0469,0 4.0937,0 6.1405,0"
         id="path1056"
         inkscape:connector-curvature="0" />
      <path
         style="fill:none;stroke:#000000;stroke-width:5.42748117;stroke-linecap:round;stroke-linejoin:round;stroke-opacity:1;stroke-miterlimit:4;stroke-dasharray:none"
         d="m -1299.3576,3123.3768 c 7.0202,-2.1451 14.2728,-1.5351 21.4918,-1.5351 1.5351,0 3.1,0.301 4.6053,0 1.5868,-0.3174 3.0093,-1.2691 4.6054,-1.5352 2.5237,-0.4206 5.1171,0 7.6756,0 1.0234,0 2.0774,0.2482 3.0703,0 7.0558,-1.7639 0.3483,-1.5351 4.6053,-1.5351"
         id="path1058"
         inkscape:connector-curvature="0" />
      <path
         style="fill:none;stroke:#000000;stroke-width:5.42748117;stroke-linecap:round;stroke-linejoin:round;stroke-opacity:1;stroke-miterlimit:4;stroke-dasharray:none"
         d="m -1219.5311,3138.728 c 0,2.0468 0,4.0937 0,6.1405 -0.5117,0.5117 -1.3063,0.8486 -1.5352,1.5351 -0.6472,1.9418 0.4965,4.1548 0,6.1405 -0.2775,1.1101 -1.1733,1.9848 -1.5351,3.0703 -0.1618,0.4854 0.1241,1.0387 0,1.5351 -0.3924,1.5698 -1.1426,3.0355 -1.5351,4.6054 -0.3336,1.3343 0,4.6225 0,6.1405 0,0.5117 0,1.0234 0,1.5351 0,0.5117 -0.2288,1.0774 0,1.5351 1.6971,3.3942 0.9528,0.4764 3.0702,1.5351 0.6473,0.3237 0.8879,1.2115 1.5352,1.5352 0.4672,0.2335 3.914,0 4.6053,0"
         id="path1060"
         inkscape:connector-curvature="0" />
      <path
         style="fill:none;stroke:#000000;stroke-width:5.42748117;stroke-linecap:round;stroke-linejoin:round;stroke-opacity:1;stroke-miterlimit:4;stroke-dasharray:none"
         d="m -1204.1799,3081.9284 v 23.0269"
         id="path1062"
         inkscape:connector-curvature="0" />
      <path
         style="fill:none;stroke:#000000;stroke-width:5.42748117;stroke-linecap:round;stroke-linejoin:round;stroke-opacity:1;stroke-miterlimit:4;stroke-dasharray:none"
         d="m -1162.7316,3193.9924 c -1.8362,-9.1809 -1.5351,-5.0664 -1.5351,-12.2809 0,-1.5352 0.2524,-3.0912 0,-4.6054 -0.266,-1.5962 -1.3344,-2.9997 -1.5351,-4.6054 -0.3174,-2.5388 0,-5.1171 0,-7.6756 0,-2.0468 0,-4.0937 0,-6.1405 0,-2.0468 0,-4.0936 0,-6.1405 0,-2.0468 -0.3365,-4.1215 0,-6.1405 0.1881,-1.1286 1.3107,-1.9482 1.5351,-3.0702 0.5665,-2.8327 -1.3526,-4.6967 1.5351,-6.1405 0.4577,-0.2289 1.1733,0.3618 1.5352,0 0.3618,-0.3618 -0.3619,-1.1733 0,-1.5351 0.3618,-0.3619 1.0234,0 1.5351,0 2.5585,0 5.1171,0 7.6756,0 2.0468,0 4.3097,-0.9154 6.1405,0 1.0234,0.5117 0.726,2.2611 1.5351,3.0702 0.8091,0.8091 2.1768,0.8203 3.0703,1.5351 6.0776,4.8621 3.2586,3.6895 7.6756,9.2108 0.9041,1.1301 2.3256,1.8291 3.0702,3.0702 0.8326,1.3876 0.9342,3.103 1.5351,4.6054 0.8499,2.1247 2.5153,3.9204 3.0703,6.1405 0.2482,0.9928 -0.3236,2.0993 0,3.0702 0.2288,0.6866 1.3063,0.8486 1.5351,1.5352 0.2751,0.8252 0,4.8407 0,6.1405 0,4.0936 0,8.1873 0,12.2809"
         id="path1064"
         inkscape:connector-curvature="0" />
      <path
         style="fill:none;stroke:#000000;stroke-width:5.42748117;stroke-linecap:round;stroke-linejoin:round;stroke-opacity:1;stroke-miterlimit:4;stroke-dasharray:none"
         d="m -1085.9754,3146.4036 c 0,3.0703 0.666,6.2136 0,9.2108 -0.087,0.3896 -5.8398,8.5091 -6.1405,9.2107 -0.8311,1.9392 -0.9555,4.1118 -1.5351,6.1405 -1.4634,5.1218 -3.8452,10.03 -4.6054,15.3512 -0.2171,1.5197 0.3011,3.1001 0,4.6054 -1.9928,9.9641 -1.5351,-3.4212 -1.5351,6.1405 0,1.0234 0.9376,3.4804 0,3.0702 -8.6061,-3.7651 -16.3747,-9.2107 -24.562,-13.8161"
         id="path1066"
         inkscape:connector-curvature="0" />
      <path
         style="fill:none;stroke:#000000;stroke-width:5.42748117;stroke-linecap:round;stroke-linejoin:round;stroke-opacity:1;stroke-miterlimit:4;stroke-dasharray:none"
         d="m -1081.37,3104.9553 c 1.2307,-3.1519 5.3418,2.702 7.6756,1.5351 0.6473,-0.3236 0.8878,-1.2115 1.5351,-1.5351 2.0468,-1.0234 1.5351,1.5351 1.5351,-1.5351"
         id="path1068"
         inkscape:connector-curvature="0" />
      <path
         style="fill:none;stroke:#000000;stroke-width:5.42748117;stroke-linecap:round;stroke-linejoin:round;stroke-opacity:1;stroke-miterlimit:4;stroke-dasharray:none"
         d="m -1030.711,3135.6578 c -4.5207,0.2171 -9.6476,-0.966 -13.8161,1.5351 -1.241,0.7446 -1.9124,2.2018 -3.0702,3.0702 -0.9154,0.6866 -2.1549,0.8486 -3.0703,1.5352 -1.1578,0.8683 -1.8291,2.3256 -3.0702,3.0702 -1.3876,0.8325 -3.2178,0.7026 -4.6054,1.5351 -1.2411,0.7447 -2.0468,2.0469 -3.0702,3.0703 -1.8633,1.8632 -3.9206,3.4013 -4.6054,6.1405 -0.2482,0.9928 0,2.0468 0,3.0702 0,1.6933 -0.2288,3.2824 1.5351,4.6054 1.2946,0.9709 3.3418,0.5243 4.6054,1.5351 1.4407,1.1526 1.7656,3.3008 3.0702,4.6054 0.8091,0.8091 2.0891,0.9464 3.0703,1.5351 1.5821,0.9492 3.0233,2.121 4.6054,3.0703 0.9811,0.5886 2.1548,0.8485 3.0702,1.5351 1.1579,0.8684 1.9124,2.2018 3.0703,3.0702 1.8307,1.3731 4.2364,1.8009 6.1405,3.0703 0.6021,0.4014 0.8878,1.2115 1.5351,1.5351 0.4577,0.2288 1.1733,-0.3618 1.5351,0 0.3618,0.3618 0,1.0234 0,1.5351 0,0.5117 0.2288,1.0775 0,1.5351 -0.65,1.3001 -3.5666,2.8625 -4.6054,3.0703 -1.5053,0.301 -3.0911,-0.2524 -4.6053,0 -1.5962,0.266 -3.0703,1.0234 -4.6054,1.5351 -3.0703,1.0234 -6.1405,2.0468 -9.2108,3.0702 -1.5351,0.5118 -3.0092,1.2691 -4.6053,1.5352 -2.5238,0.4206 -5.1935,-0.6206 -7.6756,0 -1.1101,0.2775 -1.9602,1.2576 -3.0703,1.5351 -1.4893,0.3723 -3.0702,0 -4.6054,0"
         id="path1070"
         inkscape:connector-curvature="0" />
      <path
         style="fill:none;stroke:#000000;stroke-width:5.42748117;stroke-linecap:round;stroke-linejoin:round;stroke-opacity:1;stroke-miterlimit:4;stroke-dasharray:none"
         d="m -978.51676,3077.3231 c -1.08119,7.5682 -1.09622,10.3063 -3.07025,16.8863 -0.92995,3.0999 -2.34252,6.0573 -3.07024,9.2108 -0.81362,3.5256 -0.77699,7.2078 -1.53513,10.7458 -0.78056,3.6426 -2.11038,7.1464 -3.07025,10.7459 -1.08725,4.0772 -1.94088,8.2153 -3.07024,12.281 -1.42986,5.1475 -3.24578,10.1847 -4.60537,15.3512 -2.41498,10.8674 -3.33086,15.561 -6.14046,26.0971 -0.9599,3.5995 -2.2326,7.116 -3.0703,10.7459 -0.6999,3.0329 -0.8599,6.1722 -1.5351,9.2107 -0.351,1.5797 -1.0234,3.0703 -1.5351,4.6054 -0.5117,1.5351 -0.9342,3.1029 -1.5351,4.6054 -0.425,1.0623 -0.7261,3.8793 -1.5352,3.0702 -2.6422,-2.6422 2.3241,-7.9049 3.0703,-9.2107 5.8524,-10.2418 0.01,-2.3104 7.6756,-13.8161 1.4192,-2.1289 3.33597,-3.9191 4.60536,-6.1405 0.80283,-1.405 0.39091,-3.4612 1.53512,-4.6054 1.14421,-1.1442 3.31084,-0.5642 4.60537,-1.5351 1.5046,-1.1285 0.95002,-3.8987 3.07025,-4.6054 0.9709,-0.3236 2.09935,0.3236 3.07025,0 0.68652,-0.2288 0.88785,-1.2115 1.53512,-1.5351 0.22821,-0.1141 5.80341,-0.1124 6.14049,0 6.76985,2.2566 1.62042,0.1706 3.07025,3.0702 1.02341,1.5352 2.04683,3.0703 3.07025,4.6054 0,0.5117 -0.16182,1.0497 0,1.5351 0.72365,2.171 2.04682,4.0937 3.07024,6.1405 0.51171,1.0234 1.25761,1.9602 1.53513,3.0703 0.39755,1.5902 0,4.3802 0,6.1404 0,0.3648 0.17203,5.7965 0,6.1405 -0.32364,0.6473 -1.21149,0.8879 -1.53513,1.5352 -0.22884,0.4577 0.22884,1.0774 0,1.5351 -0.32363,0.6473 -1.21149,0.8878 -1.53512,1.5351 -0.22656,0.4531 0,9.1644 0,10.7459"
         id="path1072"
         inkscape:connector-curvature="0" />
      <path
         style="fill:none;stroke:#000000;stroke-width:5.42748117;stroke-linecap:round;stroke-linejoin:round;stroke-opacity:1;stroke-miterlimit:4;stroke-dasharray:none"
         d="m -818.86392,3094.2094 c -0.38873,1.9436 -1.61781,9.7392 -3.07025,12.281 -2.53878,4.4429 -6.92232,7.7042 -9.21074,12.281 -1.95524,3.9105 -3.07025,8.1873 -4.60537,12.281 -1.53513,4.0936 -3.07025,8.1873 -4.60537,12.281 -1.53513,4.0936 -3.49273,8.0529 -4.60537,12.281 -1.45598,5.5327 -1.80235,11.3075 -3.07025,16.8863 -1.29302,5.6893 -3.40343,11.1772 -4.60537,16.8864 -0.8499,4.037 -0.95169,8.1969 -1.53513,12.281 -0.44018,3.0813 -1.22541,6.1136 -1.53512,9.2107 -0.3055,3.055 0,6.1405 0,9.2107 0,0.3648 -0.17203,5.7965 0,6.1405 1.17051,2.3411 4.03411,1.5352 6.1405,1.5352 2.55853,0 5.11707,0 7.67561,0 1.53513,0 3.10005,0.301 4.60537,0 1.122,-0.2244 2.00787,-1.1102 3.07025,-1.5352 2.2114,-0.8845 5.61839,-1.5273 7.67562,-3.0702 1.73679,-1.3026 3.07025,-3.0703 4.60537,-4.6054"
         id="path1074"
         inkscape:connector-curvature="0" />
      <path
         style="fill:none;stroke:#000000;stroke-width:5.42748117;stroke-linecap:round;stroke-linejoin:round;stroke-opacity:1;stroke-miterlimit:4;stroke-dasharray:none"
         d="m -857.24201,3152.5441 c 2.55853,0 5.11707,0 7.67562,0 1.30238,0 8.19223,0.2546 9.21074,0 1.11005,-0.2775 1.96019,-1.2576 3.07024,-1.5351 0.99286,-0.2482 2.07739,0.2482 3.07025,0 1.11005,-0.2775 1.9602,-1.2576 3.07025,-1.5351 2.48215,-0.6206 5.15188,0.4206 7.67562,0 1.59613,-0.2661 3.00922,-1.2691 4.60537,-1.5351 1.51423,-0.2524 3.07023,0 4.60537,0 1.53511,0 3.07023,0 4.60536,0 5.99688,0 0.16207,0.4576 6.14049,-1.5352 0.9709,-0.3236 2.34659,0.7237 3.07025,0 0.36183,-0.3618 0,-1.0234 0,-1.5351"
         id="path1076"
         inkscape:connector-curvature="0" />
      <path
         style="fill:none;stroke:#000000;stroke-width:5.42748117;stroke-linecap:round;stroke-linejoin:round;stroke-opacity:1;stroke-miterlimit:4;stroke-dasharray:none"
         d="m -752.85362,3074.2528 c 0,3.0703 0.3055,6.1558 0,9.2108 -0.20993,2.0993 -1.07744,4.0809 -1.53513,6.1405 -2.52503,11.3626 -0.44807,5.1181 -4.60537,18.4214 -1.44796,4.6336 -3.36993,9.1215 -4.60537,13.8162 -1.32805,5.0465 -1.63663,10.3336 -3.07024,15.3512 -1.64542,5.7589 -4.3245,11.1789 -6.1405,16.8863 -1.769,5.5598 -3.00255,11.2765 -4.60537,16.8864 -1.46766,5.1368 -3.30964,10.1684 -4.60537,15.3512 -1.26565,5.0626 -1.93822,10.2571 -3.07025,15.3513 -5.21995,23.4898 -0.45994,1.111 -7.67561,24.5619 -0.98409,3.1983 -0.8017,9.2108 -3.07025,9.2108 -0.51171,0 -0.1241,-1.0387 0,-1.5351 1.53302,-6.1321 1.84682,-4.7348 6.14049,-10.7459 4.43673,-6.2114 2.14093,-4.5598 9.21074,-10.7459 1.9255,-1.6848 4.19791,-2.9403 6.1405,-4.6053 1.64834,-1.4129 2.76437,-3.4548 4.60537,-4.6054 3.64282,-2.2768 8.31179,-3.0177 12.28099,-4.6054 2.12475,-0.8499 3.9695,-2.3466 6.14049,-3.0702 0.86612,-0.2887 3.59663,0 4.60537,0 0.51171,0 1.30629,-0.4577 1.53512,0 0.45769,0.9153 -0.16824,2.0607 0,3.0702 4.98384,19.9353 -0.70327,-4.9229 1.53513,10.7459 0.29837,2.0886 1.23675,4.0519 1.53512,6.1405 0.36184,2.5328 0,5.1171 0,7.6756 0,6.1405 0,12.281 0,18.4215"
         id="path1078"
         inkscape:connector-curvature="0" />
      <path
         style="fill:none;stroke:#000000;stroke-width:5.42748117;stroke-linecap:round;stroke-linejoin:round;stroke-opacity:1;stroke-miterlimit:4;stroke-dasharray:none"
         d="m -671.49209,3197.0627 c -0.60165,6.0803 0.60798,12.3418 0,18.4215 -0.30971,3.0971 -0.92469,6.1586 -1.53512,9.2107 -1.72751,8.6376 -2.01815,4.8304 -3.07025,15.3513 -0.35641,3.5641 0,7.1639 0,10.7458 0,2.5586 0,5.1171 0,7.6756 0,0.5117 -0.22884,1.0775 0,1.5352 1.69713,3.3942 0.95277,0.4763 3.07025,1.5351 0.64727,0.3236 0.88786,1.2115 1.53512,1.5351 0.55952,0.2798 6.7911,0 7.67562,0"
         id="path1080"
         inkscape:connector-curvature="0" />
      <path
         style="fill:none;stroke:#000000;stroke-width:5.42748117;stroke-linecap:round;stroke-linejoin:round;stroke-opacity:1;stroke-miterlimit:4;stroke-dasharray:none"
         d="m -682.23795,3127.9821 16.88636,10.7459"
         id="path1082"
         inkscape:connector-curvature="0" />
      <path
         style="fill:none;stroke:#000000;stroke-width:5.42748117;stroke-linecap:round;stroke-linejoin:round;stroke-opacity:1;stroke-miterlimit:4;stroke-dasharray:none"
         d="m -603.94665,3172.5007 c -5.73453,-2.0808 -10.92367,-1.5351 -16.88636,-1.5351 -1.37197,0 -7.18642,-0.2446 -7.67562,0 -1.53133,0.7657 -4.23846,4.6729 -4.60537,6.1405 -0.59026,2.361 0.96864,7.8889 1.53513,9.2107 0.72677,1.6958 2.04682,3.0703 3.07024,4.6054 2.04683,3.0702 4.09367,6.1405 6.1405,9.2107 11.06025,16.5904 0.57629,2.1691 15.35123,18.4215 2.20403,2.4245 3.82364,5.3588 6.1405,7.6756 2.31685,2.3169 5.11707,4.0937 7.67561,6.1405 2.55854,2.0469 5.08928,4.1289 7.67562,6.1405 2.01958,1.5708 4.1979,2.9403 6.1405,4.6054 1.64833,1.4129 3.07024,3.0702 4.60537,4.6054 1.0234,1.0234 1.77571,2.423 3.07024,3.0702 0.91537,0.4577 2.15488,-0.4577 3.07025,0 0.45768,0.2289 0,1.0234 0,1.5351 0,0.5117 0.22884,1.0775 0,1.5352 -1.02341,2.0468 -5.72772,3.6314 -7.67562,4.6053 -2.04684,1.0235 -4.01574,2.2204 -6.14049,3.0703 -3.00485,1.2019 -6.1405,2.0468 -9.21074,3.0702 -1.53513,0.5117 -3.00923,1.2691 -4.60537,1.5352 -1.51425,0.2523 -3.07025,0 -4.60537,0 -3.58196,0 -7.16392,0 -10.74587,0 -3.58195,0 -7.16391,0 -10.74586,0 -0.51171,0 -1.17329,0.3618 -1.53513,0 -0.36183,-0.3619 0,-1.0235 0,-1.5352"
         id="path1084"
         inkscape:connector-curvature="0" />
      <path
         style="fill:none;stroke:#000000;stroke-width:5.42748117;stroke-linecap:round;stroke-linejoin:round;stroke-opacity:1;stroke-miterlimit:4;stroke-dasharray:none"
         d="m -447.36406,3197.0627 c 1.04391,6.2635 2.07942,9.3639 1.53512,15.3512 -0.32758,3.6035 -1.05692,7.1593 -1.53512,10.7459 -0.54525,4.0893 -1.0531,8.1837 -1.53513,12.281 -1.74271,14.813 -2.75584,29.7224 -4.60537,44.5186 -0.89759,7.1807 -2.27109,14.2993 -3.07024,21.4917 -1.41724,12.7551 -1.85351,25.6023 -3.07025,38.3781 -0.43932,4.6128 -1.2269,9.1926 -1.53512,13.8161 -0.20424,3.0634 0.3055,6.1557 0,9.2107 -1.78334,17.8334 -1.53513,-1.1596 -1.53513,9.2108 0,0.5117 0,2.0468 0,1.5351 0,-2.5586 0,-5.1171 0,-7.6756 0,-1.5352 0.2171,-3.0857 0,-4.6054 -0.29837,-2.0886 -1.27343,-4.047 -1.53512,-6.1405 -0.25388,-2.031 0,-4.0936 0,-6.1405 0,-2.5585 0,-5.1171 0,-7.6756 0,-5.6288 0,-11.2576 0,-16.8864 0,-3.5819 -0.27473,-7.1744 0,-10.7458 0.23872,-3.1035 1.02341,-6.1405 1.53512,-9.2108 0.51171,-3.0702 0.78021,-6.191 1.53513,-9.2107 0.78492,-3.1397 2.28532,-6.071 3.07024,-9.2107 0.75492,-3.0197 0.83523,-6.1779 1.53513,-9.2108 4.254,-18.434 2.13894,-3.0191 6.14049,-23.0268 0.70961,-3.5481 0.7215,-7.2202 1.53512,-10.7459 2.86731,-12.425 2.78308,-5.695 6.1405,-16.8864 6.66396,-22.2131 -3.28299,3.4958 4.60537,-12.2809 2.49645,-4.993 0.38754,-3.6516 3.07025,-7.6757 0.80283,-1.2042 2.42298,-1.7757 3.07024,-3.0702 0.45768,-0.9154 -0.72366,-2.3466 0,-3.0703 0.36183,-0.3618 1.02341,0 1.53513,0 1.48481,0 8.75543,-0.2276 9.21074,0 0.64725,0.3237 0.93299,1.1338 1.53511,1.5352 0.95205,0.6347 2.26117,0.726 3.07025,1.5351 0.80908,0.8091 0.72605,2.2612 1.53512,3.0702 0.80909,0.8091 2.26117,0.7261 3.07025,1.5352 0.36183,0.3618 0,1.0234 0,1.5351 0,1.5351 -0.37232,3.1161 0,4.6054 0.17552,0.702 1.30628,0.8486 1.53512,1.5351 0.0661,0.1983 0.0498,7.4262 0,7.6756 -0.31734,1.5867 -0.70258,3.2178 -1.53512,4.6054 -1.48929,2.4821 -4.33221,3.8801 -6.14048,6.1405 -1.15256,1.4407 -1.76565,3.3007 -3.07025,4.6053 -5.75904,5.7591 -2.83013,0.9713 -7.67562,4.6054 -1.15787,0.8684 -2.04684,2.0468 -3.07025,3.0702 -0.51171,0.5118 -0.84859,1.3063 -1.53512,1.5352 -0.9709,0.3236 -2.09935,-0.3237 -3.07025,0 -1.63028,0.5434 -2.28644,4.2297 -4.60537,3.0702 -0.64726,-0.3236 -0.88786,-1.2115 -1.53512,-1.5351 -2.04684,-1.0234 -1.53512,1.5351 -1.53512,-1.5351"
         id="path1086"
         inkscape:connector-curvature="0" />
      <path
         style="fill:none;stroke:#000000;stroke-width:5.42748117;stroke-linecap:round;stroke-linejoin:round;stroke-opacity:1;stroke-miterlimit:4;stroke-dasharray:none"
         d="m -361.39715,3207.8086 c -0.51171,2.5585 -1.24698,5.0823 -1.53513,7.6756 -0.22603,2.0343 0.3365,4.1215 0,6.1405 -0.18811,1.1286 -1.11017,2.0078 -1.53512,3.0702 -0.60097,1.5024 -1.02342,3.0703 -1.53512,4.6054 -0.51171,1.5351 -1.21778,3.0186 -1.53513,4.6054 -0.40142,2.007 0.49643,4.1547 0,6.1405 -0.27751,1.11 -1.17329,1.9847 -1.53512,3.0702 -0.25399,0.762 -0.13074,4.4746 0,4.6054 0.36183,0.3618 1.02342,0 1.53512,0"
         id="path1088"
         inkscape:connector-curvature="0" />
      <path
         style="fill:none;stroke:#000000;stroke-width:5.42748117;stroke-linecap:round;stroke-linejoin:round;stroke-opacity:1;stroke-miterlimit:4;stroke-dasharray:none"
         d="m -361.39715,3169.4305 10.74586,6.1405"
         id="path1090"
         inkscape:connector-curvature="0" />
      <path
         style="fill:none;stroke:#000000;stroke-width:5.42748117;stroke-linecap:round;stroke-linejoin:round;stroke-opacity:1;stroke-miterlimit:4;stroke-dasharray:none"
         d="m -304.59754,3195.5276 c -5.62884,0 -11.25762,0 -16.8864,0 -6.17527,0 -3.03547,0 -9.21074,0 -1.02342,0 -2.07739,-0.2482 -3.07025,0 -1.11005,0.2775 -1.9602,1.2576 -3.07025,1.5351 -0.99286,0.2482 -2.15487,-0.4577 -3.07024,0 -7.91182,3.9559 -1.48643,1.4377 -3.07025,4.6054 -0.32363,0.6472 -1.21149,0.8878 -1.53513,1.5351 -2.05668,4.1134 -1.53512,7.8655 -1.53512,12.281 0,3.0702 0,6.1405 0,9.2107 0,1.0234 0,2.0468 0,3.0703 0,1.0234 -0.32363,2.0993 0,3.0702 0.22884,0.6865 1.21149,0.8879 1.53512,1.5351 0.22884,0.4577 0,1.0235 0,1.5352 0.51171,1.0234 0.90043,2.1182 1.53513,3.0702 0.40142,0.6021 1.21149,0.8879 1.53512,1.5351 0.22884,0.4577 -0.36183,1.1733 0,1.5352 0.36183,0.3618 1.17329,-0.3619 1.53513,0 0.80907,0.809 0.72603,2.2611 1.53512,3.0702 0.36183,0.3618 1.04967,-0.1618 1.53512,0 1.08549,0.3618 2.1182,0.9004 3.07025,1.5351 0.60212,0.4014 0.8486,1.3063 1.53512,1.5351 1.45634,0.4855 3.07025,0 4.60537,0 3.07025,0 6.1405,0 9.21074,0 0.51171,0 1.02341,0 1.53513,0 0.5117,0 1.17329,0.3619 1.53512,0 0.36184,-0.3618 0,-1.0234 0,-1.5351 0,-0.5117 0,-1.0234 0,-1.5351"
         id="path1092"
         inkscape:connector-curvature="0" />
      <path
         style="fill:none;stroke:#000000;stroke-width:5.42748117;stroke-linecap:round;stroke-linejoin:round;stroke-opacity:1;stroke-miterlimit:4;stroke-dasharray:none"
         d="m -284.64102,3137.1929 c 0,4.6054 0,9.2107 0,13.8161 0,2.0468 0.2539,4.1095 0,6.1405 -0.2616,2.0935 -1.0234,4.0936 -1.53511,6.1405 -0.5117,2.0468 -0.86796,4.1389 -1.53511,6.1405 -0.87143,2.6142 -2.12855,5.0859 -3.07021,7.6756 -1.10602,3.0415 -1.96432,6.1693 -3.07022,9.2107 -0.94178,2.5898 -2.34522,5.0171 -3.07033,7.6756 -0.819,3.003 -0.78014,6.1911 -1.53511,9.2108 -0.78492,3.1397 -2.21875,6.0884 -3.07021,9.2107 -2.03694,7.4686 -1.53511,7.7296 -1.53511,15.3513 0,4.6053 0,9.2107 0,13.8161 0,0.5117 -0.36191,1.1733 0,1.5351 0.36179,0.3618 1.0234,0 1.53511,0 0.5117,0 1.0234,0 1.53511,0 5.11702,0 10.23416,0 15.35119,0"
         id="path1094"
         inkscape:connector-curvature="0" />
      <path
         style="fill:none;stroke:#000000;stroke-width:5.42748117;stroke-linecap:round;stroke-linejoin:round;stroke-opacity:1;stroke-miterlimit:4;stroke-dasharray:none"
         d="m -304.59754,3195.5276 c 3.58192,-5.1171 6.56736,-10.7085 10.74587,-15.3513 0.7313,-0.8126 4.88831,0.4174 6.14043,0 11.1195,-3.7065 -2.42033,0.4426 4.60533,-3.0702 1.22813,-0.6141 3.3773,0.614 4.60544,0 0.64728,-0.3236 0.88782,-1.2115 1.5351,-1.5351 0.4037,-0.2019 5.33771,0 6.14055,0"
         id="path1096"
         inkscape:connector-curvature="0" />
      <path
         style="fill:none;stroke:#000000;stroke-width:5.42748117;stroke-linecap:round;stroke-linejoin:round;stroke-opacity:1;stroke-miterlimit:4;stroke-dasharray:none"
         d="m -270.82482,3175.571 c 5.62873,5.6288 12.25948,10.4088 16.8863,16.8863 0.94058,1.3168 -0.93418,3.103 -1.53511,4.6054 -4.34882,8.6975 0.57206,-2.2884 -1.53511,6.1405 -0.55501,2.2201 -2.5152,3.9204 -3.07032,6.1405 -0.39751,1.5902 0,4.3802 0,6.1405 0,0.3723 -0.0488,4.556 0,4.6053 0.0619,0.062 5.57684,0 6.14054,0 0.91399,0 8.6348,0.288 9.21076,0 1.29457,-0.6472 1.91232,-2.2018 3.07022,-3.0702 0.9154,-0.6865 2.15493,-0.8486 3.07022,-1.5351 1.1579,-0.8684 1.91242,-2.2019 3.07032,-3.0703 0.91529,-0.6865 2.26109,-0.726 3.07022,-1.5351 0.80902,-0.8091 0.72598,-2.2612 1.53511,-3.0702 3.72846,-3.7285 2.25425,0.4565 4.60533,-3.0703 5.17011,-7.7551 0.0119,-0.036 1.53521,-4.6054 0.9293,-2.7881 1.31378,-2.8489 3.07022,-4.6053 0.5117,-0.5117 1.30629,-0.8486 1.53511,-1.5352 0.27506,-0.8252 0,-4.8407 0,-6.1404"
         id="path1098"
         inkscape:connector-curvature="0" />
      <path
         style="fill:none;stroke:#000000;stroke-width:5.42748117;stroke-linecap:round;stroke-linejoin:round;stroke-opacity:1;stroke-miterlimit:4;stroke-dasharray:none"
         d="m -206.34971,3220.0895 c 1.32322,-3.9695 2.36855,-8.5529 4.60543,-12.2809 0.94916,-1.5821 2.12095,-3.0233 3.07022,-4.6054 0.58866,-0.9812 0.94644,-2.0891 1.53511,-3.0703 0.94926,-1.582 2.24513,-2.9551 3.07021,-4.6053 2.64471,-5.2894 -0.19213,-4.0775 4.60544,-7.6756 0.91529,-0.6866 2.26109,-0.7261 3.07022,-1.5352 10.23416,-10.2341 -7.67566,3.582 4.60532,-4.6053 1.54651,-1.031 2.6395,-3.5011 3.07033,-3.0703 0.5117,0.5117 -1.02341,1.0234 -1.53511,1.5351"
         id="path1100"
         inkscape:connector-curvature="0" />
      <path
         style="fill:none;stroke:#000000;stroke-width:5.42748117;stroke-linecap:round;stroke-linejoin:round;stroke-opacity:1;stroke-miterlimit:4;stroke-dasharray:none"
         d="m -180.25254,3180.1763 c 8.18725,2.5586 16.3746,5.1171 24.56196,7.6757 0.5117,0.5117 0.88782,1.2114 1.53511,1.5351 0.45764,0.2288 1.0234,0 1.5351,0 0.51171,0 1.02341,0 1.53511,0 3.58192,0 7.16395,0 10.74587,0 2.55852,0 5.11703,0 7.67566,0 0.5117,0 1.0234,0 1.5351,0 0.51171,0 1.07747,0.2288 1.53511,0 0.64728,-0.3237 1.21153,-0.8879 1.53511,-1.5351 0.15751,-0.3149 0.21656,-4.3889 0,-4.6054 -0.36179,-0.3618 -1.0234,0 -1.53511,0 -3.58192,0 -7.16395,0 -10.74587,0 -4.09362,0 -8.18735,0 -12.28098,0 -1.5351,0 -3.14902,-0.4855 -4.60532,0 -0.68658,0.2288 -0.93309,1.1337 -1.53522,1.5351 -5.4582,3.6388 -1.19394,-1.0803 -4.60532,4.6054 -2.16253,3.6041 -3.20178,4.1665 -4.60533,7.6756 -0.60104,1.5024 -0.93418,3.1029 -1.53522,4.6054 -0.42486,1.0623 -1.25755,1.9602 -1.53511,3.0702 -0.24814,0.9929 0,2.0469 0,3.0703 0,1.0234 0,2.0468 0,3.0702 0,1.0234 0,2.0468 0,3.0703 0,1.0234 -0.32358,2.0993 0,3.0702 0.22893,0.6865 1.1337,0.933 1.53511,1.5351 0.6348,0.9521 0.90053,2.1182 1.53522,3.0703 0.40142,0.6021 1.0234,1.0234 1.53511,1.5351 1.0234,1.0234 2.04681,2.0468 3.07022,3.0702 0.5117,0.5117 0.93298,1.1337 1.5351,1.5352 1.90407,1.2694 4.23648,1.8008 6.14055,3.0702 0.60212,0.4014 0.88782,1.2115 1.53511,1.5351 0.45764,0.2289 1.17331,-0.3618 1.5351,0 0.3618,0.3619 -0.22882,1.0775 0,1.5352 0.32359,0.6472 1.02341,1.0234 1.53511,1.5351"
         id="path1102"
         inkscape:connector-curvature="0" />
      <path
         style="fill:none;stroke:#000000;stroke-width:5.42748117;stroke-linecap:round;stroke-linejoin:round;stroke-opacity:1;stroke-miterlimit:4;stroke-dasharray:none"
         d="m -1236.4175,3275.354 c 1.7358,8.6792 1.5351,5.0664 1.5351,10.7459 0,1.0234 0.2007,2.0667 0,3.0702 -0.3173,1.5867 -1.2177,3.0186 -1.5351,4.6054 -0.4014,2.0071 0.4014,4.1334 0,6.1405 -0.3173,1.5867 -1.1427,3.0355 -1.5351,4.6053 -0.6328,2.5313 -1.0234,5.1171 -1.5351,7.6756 -1.0235,3.0703 -2.2188,6.0885 -3.0703,9.2108 -1.0342,3.792 -2.4319,13.3758 -3.0702,16.8863 -0.4668,2.5672 -1.0684,5.1085 -1.5352,7.6757 -0.5568,3.0624 -0.9247,6.1586 -1.5351,9.2107 -0.5117,2.0468 -1.0234,4.0937 -1.5351,6.1405 0,1.5351 0.2524,3.0911 0,4.6054 -0.266,1.5961 -1.2178,3.0186 -1.5351,4.6053 -0.2007,1.0036 0,2.0469 0,3.0703 0,0.5117 0,2.0468 0,1.5351 0,-3.9522 -0.3372,-7.0012 1.5351,-10.7459 0.8251,-1.6502 2.3435,-2.9095 3.0702,-4.6053 0.8311,-1.9393 0.5916,-4.2534 1.5352,-6.1405 1.1442,-2.2884 3.0702,-4.0937 4.6053,-6.1405 1.7771,-2.3694 4.8874,-7.1196 7.6756,-9.2108 0.9154,-0.6865 2.1549,-0.8485 3.0703,-1.5351 1.1579,-0.8684 1.9124,-2.2018 3.0702,-3.0702 2.6742,-2.0056 4.5837,-1.5351 7.6757,-1.5351 0.5229,0 5.3096,-0.277 6.1405,0 4.0461,1.3487 3.5229,2.2141 6.1404,6.1404 1.0235,1.5352 2.2452,2.9552 3.0703,4.6054 0.7237,1.4474 1.0234,3.0703 1.5351,4.6054 0.5117,1.5351 1.0234,3.0702 1.5351,4.6054 1.6968,5.0904 1.5352,4.4077 1.5352,9.2107 0,0.5117 0,1.0234 0,1.5351 0,0.5117 0.2288,1.0775 0,1.5351 -0.6688,1.3376 -3.537,2.8032 -4.6054,3.0703 -0.9929,0.2482 -2.0774,-0.2482 -3.0703,0 -10.0221,2.5055 5.8,0.8243 -7.6756,3.0702 -1.5142,0.2524 -3.0702,0 -4.6053,0 -2.0469,0 -4.0937,0 -6.1405,0 -4.0937,0 -8.1874,0 -12.281,0 -4.6054,0 -9.2108,0 -13.8161,0 -0.5117,0 -1.0234,0 -1.5352,0 -0.5117,0 -1.5351,0.5117 -1.5351,0 0,-0.6425 1.8691,0.4004 3.0703,0 5.9784,-1.9928 0.1436,-1.5351 6.1405,-1.5351"
         id="path1104"
         inkscape:connector-curvature="0" />
      <path
         style="fill:none;stroke:#000000;stroke-width:5.42748117;stroke-linecap:round;stroke-linejoin:round;stroke-opacity:1;stroke-miterlimit:4;stroke-dasharray:none"
         d="m -1159.6613,3358.2507 c 2.5585,-1.0235 5.1171,-2.0469 7.6756,-3.0703 1.0234,0 2.0774,0.2482 3.0702,0 2.2201,-0.555 4.0158,-2.2203 6.1405,-3.0702 3.0049,-1.202 6.2059,-1.8683 9.2108,-3.0703 3.1376,-1.255 6.187,-3.0935 9.2107,-4.6054 1.2465,-0.6232 3.824,-1.5074 4.6054,-3.0702 0.2288,-0.4577 0,-1.0234 0,-1.5351 0,-0.5117 0.3618,-1.1733 0,-1.5352 -0.8091,-0.809 -2.0891,-0.9464 -3.0703,-1.5351 -1.582,-0.9492 -2.8778,-2.4224 -4.6053,-3.0702 -6.3443,-2.3791 -16.1956,-1.5351 -23.0269,-1.5351 -1.5964,0 -8.0032,-0.3019 -9.2107,0 -1.1101,0.2775 -2.0469,1.0234 -3.0703,1.5351 -1.0234,0.5117 -2.2611,0.726 -3.0702,1.5351 -0.8091,0.8091 -0.7261,2.2612 -1.5351,3.0702 -0.3619,0.3619 -1.1733,-0.3618 -1.5352,0 -0.809,0.8091 -0.9004,2.1183 -1.5351,3.0703 -0.4014,0.6021 -1.3063,0.8486 -1.5351,1.5351 -0.3236,0.9709 0.3236,2.0994 0,3.0703 -0.2289,0.6865 -1.2115,0.8878 -1.5351,1.5351 -0.2289,0.4577 0,1.0234 0,1.5351 0,0.5117 0,1.0234 0,1.5351 0,3.8544 0.055,4.6604 3.0702,7.6757 1.0234,1.0234 1.6229,3.0702 3.0703,3.0702 2.7556,0 5.2109,-4.3026 7.6756,-3.0702 2.3337,1.1668 -0.095,5.6381 1.5351,7.6756 0.959,1.1987 3.0911,-0.2524 4.6054,0 4.4325,0.7387 7.8749,3.7241 12.281,4.6053 1.7689,0.3538 9.802,-0.4718 10.7458,0 4.5176,2.2588 -2.3829,1.5352 4.6054,1.5352"
         id="path1106"
         inkscape:connector-curvature="0" />
      <path
         style="fill:none;stroke:#000000;stroke-width:5.42748117;stroke-linecap:round;stroke-linejoin:round;stroke-opacity:1;stroke-miterlimit:4;stroke-dasharray:none"
         d="m -1125.8886,3372.0668 c 4.5485,-1.6245 20.8003,-1.8397 23.0268,-10.7459 0.2483,-0.9929 0,-2.0468 0,-3.0702 0,-3.582 -0.4442,-7.1916 0,-10.7459 2.2798,-18.2382 1.5352,9.2395 1.5352,-15.3512 0,-4.6054 0,-9.2108 0,-13.8162 0,-2.0468 -0.2261,-4.1061 0,-6.1405 0.2881,-2.5932 1.1661,-5.0926 1.5351,-7.6756 0.1447,-1.0131 -0.2482,-2.0773 0,-3.0702 0.555,-2.2201 2.3466,-3.9695 3.0702,-6.1405 0.1619,-0.4855 -0.3618,-1.1733 0,-1.5351 0.8091,-0.8091 2.2612,-0.7261 3.0703,-1.5351 0.8091,-0.8091 0.5831,-2.4356 1.5351,-3.0703 0.8515,-0.5677 2.0774,0.2482 3.0703,0 2.2201,-0.555 3.8965,-2.6215 6.1404,-3.0702 1.5054,-0.3011 3.0703,0 4.6054,0 1.5351,0 3.0703,0 4.6054,0 4.6054,0 9.2107,0 13.8161,0 3.5819,0 7.1639,0 10.7459,0 0.5117,0 1.1733,-0.3619 1.5351,0 0.3618,0.3618 0,1.0234 0,1.5351 0,0.5117 0,1.0234 0,1.5351 0,2.6767 0.6428,5.4977 -1.5351,7.6756 -1.3046,1.3046 -3.3008,1.7657 -4.6054,3.0703 -8.6475,8.6474 2.7844,1.6576 -7.6756,6.1405 -14.605,6.2592 2.5953,-0.589 -12.281,7.6756 -2.4089,1.3382 -5.1171,2.0468 -7.6756,3.0702"
         id="path1108"
         inkscape:connector-curvature="0" />
      <path
         style="fill:none;stroke:#000000;stroke-width:5.42748117;stroke-linecap:round;stroke-linejoin:round;stroke-opacity:1;stroke-miterlimit:4;stroke-dasharray:none"
         d="m -1118.213,3333.6887 c 2.0468,0 4.0937,0 6.1405,0 10.7459,0 21.4917,0 32.2376,0 2.0468,0 4.0937,0 6.1405,0 0.5117,0 1.0234,0 1.5351,0 0.5117,0 1.5351,-0.5117 1.5351,0 0,0.5117 -1.2604,0.4317 -1.5351,0 -3.4423,-5.4093 -6.1405,-11.2576 -9.2107,-16.8864"
         id="path1110"
         inkscape:connector-curvature="0" />
      <path
         style="fill:none;stroke:#000000;stroke-width:5.42748117;stroke-linecap:round;stroke-linejoin:round;stroke-opacity:1;stroke-miterlimit:4;stroke-dasharray:none"
         d="m -1036.8514,3344.4345 c -2.0469,-2.0468 -3.8802,-4.3322 -6.1405,-6.1405 -0.3996,-0.3196 -1.0387,0.1242 -1.5352,0 -1.5698,-0.3924 -3.0355,-1.1426 -4.6053,-1.5351 -1.2997,-0.3249 -4.5467,0 -6.1405,0 -0.3648,0 -5.7965,-0.172 -6.1405,0 -1.7599,0.88 -2.1354,3.2031 -3.0703,4.6054 -1.8726,2.8089 -1.9572,0.1532 -3.0702,4.6054 -0.2482,0.9928 0,2.0468 0,3.0702 0,3.582 0,7.1639 0,10.7459 0,1.5964 -0.3019,8.0032 0,9.2107 0.2775,1.1101 1.0234,2.0468 1.5351,3.0703 0.5117,1.0234 0.726,2.2611 1.5351,3.0702 0.8091,0.8091 2.2612,0.7261 3.0703,1.5351 0.809,0.8091 0.726,2.2612 1.5351,3.0703 0.3023,0.3022 8.6628,4.4684 9.2107,4.6054 0.9929,0.2482 2.0469,0 3.0703,0 1.0234,0 2.0468,0 3.0702,0 4.6054,0 9.2108,0 13.8161,0 3.0703,0 6.1405,0 9.2108,0 1.0234,0 2.2187,0.5676 3.0702,0 0.9521,-0.6347 0.7261,-2.2612 1.5352,-3.0703 1.8697,-1.8698 3.4297,-0.7191 4.6053,-3.0702 0.7237,-1.4474 1.2178,-3.0187 1.5352,-4.6054 0.2007,-1.0036 0,-2.0468 0,-3.0703 0,-3.0702 0,-6.1405 0,-9.2107 0,-1.5351 0.2523,-3.0911 0,-4.6054 -0.2661,-1.5961 -1.0235,-3.0702 -1.5352,-4.6053 -0.5117,-1.5352 -0.9341,-3.103 -1.5351,-4.6054 -0.4249,-1.0624 -0.9004,-2.1182 -1.5351,-3.0703 -1.897,-2.8454 -1.5351,-0.1407 -1.5351,-3.0702"
         id="path1112"
         inkscape:connector-curvature="0" />
      <path
         style="fill:none;stroke:#000000;stroke-width:5.42748117;stroke-linecap:round;stroke-linejoin:round;stroke-opacity:1;stroke-miterlimit:4;stroke-dasharray:none"
         d="m -983.12213,3382.8126 c 0,-5.117 0,-10.2341 0,-15.3512 0,-3.582 0,-7.1639 0,-10.7459 0,-1.5351 -0.48546,-3.149 0,-4.6053 0.58343,-1.7504 1.99786,-3.1041 3.07025,-4.6054 1.05539,-1.4776 5.29561,-7.6241 7.67561,-9.2108 1.90409,-1.2693 4.15358,-1.9348 6.1405,-3.0702 12.96729,-7.4099 -1.64026,0.052 7.67561,-4.6054 1.02341,-0.5117 1.9602,-1.2576 3.07025,-1.5351 1.59022,-0.3975 4.38022,0 6.1405,0 0.5117,0 1.30627,-0.4577 1.53512,0 0.45768,0.9154 0,2.0468 0,3.0703"
         id="path1114"
         inkscape:connector-curvature="0" />
      <path
         style="fill:none;stroke:#000000;stroke-width:5.42748117;stroke-linecap:round;stroke-linejoin:round;stroke-opacity:1;stroke-miterlimit:4;stroke-dasharray:none"
         d="m -947.81429,3332.1536 c 4.09366,5.1171 7.89722,10.4804 12.28098,15.3512 0.34232,0.3803 1.02342,0 1.53512,0 2.55854,0 5.11709,0 7.67562,0 0.51171,0 1.02342,0 1.53512,0 0.51172,0 1.07745,0.2288 1.53513,0 0.64726,-0.3236 1.02341,-1.0234 1.53512,-1.5351 0.51171,-0.5117 1.02342,-1.0234 1.53512,-1.5352 0.51172,-0.5117 1.21149,-0.8878 1.53513,-1.5351 0.22885,-0.4577 0,-1.0234 0,-1.5351 0,-0.5117 0.36183,-1.1733 0,-1.5351 -0.36184,-0.3619 -1.02341,0 -1.53513,0 -2.55853,0 -5.11707,0 -7.67561,0 -1.37198,0 -7.18641,-0.2446 -7.67562,0 -0.64727,0.3236 -0.933,1.1337 -1.53513,1.5351 -0.95203,0.6347 -2.26116,0.726 -3.07024,1.5351 -0.36183,0.3619 0.16182,1.0497 0,1.5351 -0.36183,1.0855 -0.84859,2.1549 -1.53513,3.0703 -0.86839,1.1579 -2.42297,1.7757 -3.07023,3.0702 -0.45769,0.9154 0.2482,2.0774 0,3.0703 -0.27752,1.11 -1.11019,2.0079 -1.53514,3.0702 -0.972,2.4301 -2.74676,8.4816 -3.07023,10.7459 -0.2171,1.5197 0,3.0702 0,4.6054 0,1.5351 0,3.0702 0,4.6053 0,1.0235 0,2.0469 0,3.0703 0,1.0234 -0.32364,2.0993 0,3.0702 0.22883,0.6866 1.30627,0.8486 1.53512,1.5352 0.32363,0.9709 -0.72367,2.3465 0,3.0702 0.72366,0.7237 2.07739,-0.2482 3.07025,0 1.11005,0.2775 2.04682,1.0234 3.07023,1.5351 2.50556,1.2528 4.83019,2.596 7.67562,3.0703 1.51424,0.2523 3.07025,0 4.60537,0 1.53513,0 3.07025,0 4.60537,0 8.18733,0 16.37466,0 24.56198,0"
         id="path1116"
         inkscape:connector-curvature="0" />
      <path
         style="fill:none;stroke:#000000;stroke-width:5.42748117;stroke-linecap:round;stroke-linejoin:round;stroke-opacity:1;stroke-miterlimit:4;stroke-dasharray:none"
         d="m -797.37221,3385.8829 c 1.47219,-3.4601 -0.58886,-7.2127 0,-10.7459 0.34686,-2.0811 1.30214,-4.0436 1.53513,-6.1405 0.28255,-2.5429 -0.23164,-5.1276 0,-7.6756 0.2818,-3.0998 1.22541,-6.1136 1.53512,-9.2107 0.20367,-2.0367 -0.25387,-4.1095 0,-6.1405 0.26169,-2.0936 1.27344,-4.047 1.53513,-6.1405 0.25388,-2.0311 0,-4.0937 0,-6.1405 0,-4.6054 0,-9.2108 0,-13.8161 0,-2.2201 -0.32421,-9.1248 0,-10.7459 1.99281,-9.964 1.53512,3.4212 1.53512,-6.1405 0,-1.0234 0,-2.0468 0,-3.0702 0,-0.5117 0,-2.0469 0,-1.5352 0,2.5586 0,5.1171 0,7.6757 0,1.5351 0.25237,3.0911 0,4.6053 -0.26602,1.5962 -1.02341,3.0703 -1.53512,4.6054 -0.51171,2.5585 -1.2115,5.0866 -1.53513,7.6756 -0.1904,1.5233 0.2171,3.0857 0,4.6054 -0.29837,2.0886 -1.23675,4.0519 -1.53512,6.1405 -0.2171,1.5197 0,3.0702 0,4.6053 0,1.5352 0,3.0703 0,4.6054 0,2.0469 0,4.0937 0,6.1405 0,0.5117 -0.45768,1.3063 0,1.5351 1.8225,0.9113 6.63076,-1.1171 7.67562,-1.5351 1.06238,-0.4249 1.94825,-1.3107 3.07024,-1.5351 10.53018,-2.106 -1.39057,2.7054 9.21074,-1.5351 2.12475,-0.8499 3.9204,-2.5153 6.1405,-3.0703 0.99286,-0.2482 2.04684,0 3.07025,0 1.02341,0 2.15487,-0.4577 3.07024,0 0.45769,0.2289 0,1.0234 0,1.5351 0,1.0235 0,2.0469 0,3.0703 0,1.0234 0,2.0468 0,3.0702 0,0.5118 0.28385,1.1094 0,1.5352 -0.80283,1.2042 -2.42298,1.7757 -3.07024,3.0702 -0.94354,1.8871 -0.3648,4.385 -1.53513,6.1405 -1.02342,1.5351 -3.16468,1.9177 -4.60537,3.0702 -2.26035,1.8083 -4.09365,4.0937 -6.14049,6.1405 -1.02341,1.0235 -1.82918,2.3256 -3.07025,3.0703 -1.38755,0.8325 -3.21781,0.7026 -4.60537,1.5351 -4.36923,2.6216 -1.38841,3.4174 -6.14049,4.6054 -0.99286,0.2482 -2.4562,-0.8188 -3.07025,0 -1.26589,1.6878 -1.02341,4.0937 -1.53513,6.1405 z"
         id="path1118"
         inkscape:connector-curvature="0" />
      <path
         style="fill:none;stroke:#000000;stroke-width:5.42748117;stroke-linecap:round;stroke-linejoin:round;stroke-opacity:1;stroke-miterlimit:4;stroke-dasharray:none"
         d="m -746.71313,3372.0668 c 4.58791,-1.9183 9.05332,-1.5352 13.81611,-1.5352 1.02342,0 2.09935,0.3237 3.07025,0 0.68653,-0.2288 0.8486,-1.3062 1.53512,-1.5351 0.9709,-0.3236 2.04683,0 3.07025,0 0.51171,0 1.07744,0.2289 1.53512,0 6.38882,-3.1944 -1.6411,0.106 1.53513,-3.0702 0.36183,-0.3619 1.17329,0.3618 1.53512,0 0.15351,-0.1535 0.15351,-4.4519 0,-4.6054 -0.36183,-0.3618 -1.07744,0.2289 -1.53512,0 -1.29453,-0.6473 -1.6972,-2.6126 -3.07025,-3.0702 -0.9709,-0.3237 -2.04684,0 -3.07025,0 -3.58195,0 -7.16391,0 -10.74586,0 -2.04683,0 -4.09367,0 -6.1405,0 -1.02341,0 -2.09935,-0.3237 -3.07024,0 -5.56527,1.855 -1.09254,0.7283 -4.60537,3.0702 -0.95204,0.6347 -2.15488,0.8486 -3.07025,1.5351 -1.15787,0.8684 -2.04683,2.0469 -3.07025,3.0703 -1.02342,1.0234 -2.20184,1.9124 -3.07024,3.0702 -0.68653,0.9154 -0.8486,2.1549 -1.53513,3.0703 -1.30259,1.7368 -3.40112,2.799 -4.60537,4.6053 -0.63469,0.9521 -0.90043,2.1182 -1.53512,3.0703 -0.40141,0.6021 -1.21149,0.8878 -1.53513,1.5351 -0.24459,0.4892 0,6.3037 0,7.6756 0,0.5638 -0.0618,6.0787 0,6.1405 0.36184,0.3619 1.07744,-0.2288 1.53513,0 1.29453,0.6473 1.69719,2.6126 3.07025,3.0703 0.97089,0.3236 2.04682,0 3.07024,0 1.53513,0.5117 3.07025,1.0234 4.60537,1.5351"
         id="path1120"
         inkscape:connector-curvature="0" />
      <path
         style="fill:none;stroke:#000000;stroke-width:5.42748117;stroke-linecap:round;stroke-linejoin:round;stroke-opacity:1;stroke-miterlimit:4;stroke-dasharray:none"
         d="m -691.44868,3370.5316 c -2.04684,-1.5351 -3.94658,-3.289 -6.1405,-4.6053 -0.43878,-0.2633 -1.02342,0 -1.53512,0 -1.02342,0 -2.04684,0 -3.07025,0 -1.59641,0 -8.00318,-0.3019 -9.21074,0 -1.11005,0.2775 -2.15488,0.8486 -3.07024,1.5351 -5.37166,4.0287 -1.24321,1.6576 -4.60538,6.1405 -0.8684,1.1579 -2.20184,1.9124 -3.07024,3.0702 -0.68653,0.9154 -0.94644,2.0891 -1.53513,3.0703 -0.94924,1.5821 -2.12101,3.0233 -3.07024,4.6054 -1.1774,1.9623 -1.80086,4.2364 -3.07025,6.1404 -0.40142,0.6022 -1.30629,0.8486 -1.53512,1.5352 -0.32364,0.9709 0,2.0468 0,3.0702 0,0.5117 0,1.0234 0,1.5351 0,0.5117 -0.36184,1.1733 0,1.5352 0.36183,0.3618 1.02342,0 1.53512,0 1.02342,0 2.04683,0 3.07025,0 0.5117,0 1.04967,0.1618 1.53512,0 1.08549,-0.3619 2.00787,-1.1102 3.07025,-1.5352 7.94459,-3.1778 1.44732,0.5703 9.21074,-4.6053 16.97466,-11.3165 -4.12553,2.4753 7.67562,-4.6054 1.58205,-0.9492 3.0233,-2.121 4.60537,-3.0702 0.98114,-0.5887 2.26116,-0.7261 3.07024,-1.5352 0.80908,-0.8091 0.72604,-2.2611 1.53513,-3.0702 1.02341,-0.5117 2.04683,-1.0234 3.07024,-1.5351 0,-0.5117 -0.36183,-1.1733 0,-1.5352 0.36183,-0.3618 1.41102,0.4965 1.53513,0 0.49643,-1.9857 -0.76018,-4.24 0,-6.1405 1.37041,-3.426 4.64185,-5.8388 6.14048,-9.2107 5.45823,-12.281 -1.8194,-0.6823 0,-6.1405 0.72367,-2.171 2.51523,-3.9204 3.07025,-6.1405 0.62054,-2.4821 -0.62053,-5.1935 0,-7.6756 0.17552,-0.7021 1.30628,-0.8486 1.53512,-1.5351 0.23424,-0.7028 0,-6.8188 0,-7.6756 0,-0.5117 0,1.0234 0,1.5351 0,2.0468 0,4.0936 0,6.1405 0,5.1171 0,10.2341 0,15.3512 0,20.98 0,41.96 0,62.9401 0,1.5351 0,3.0702 0,4.6053 0,0.5117 -0.36182,1.1733 0,1.5352 0.36184,0.3618 1.1733,-0.3619 1.53513,0 0.36183,0.3618 -0.36183,1.1733 0,1.5351 0.36183,0.3618 1.02342,0 1.53512,0 0.51171,0 1.02342,0 1.53512,0"
         id="path1122"
         inkscape:connector-curvature="0" />
      <path
         style="fill:none;stroke:#000000;stroke-width:5.42748117;stroke-linecap:round;stroke-linejoin:round;stroke-opacity:1;stroke-miterlimit:4;stroke-dasharray:none"
         d="m -620.83301,3333.6887 c -0.59238,3.5451 0.44428,7.1916 0,10.7458 -0.98773,7.9019 -3.64066,15.5274 -6.14049,23.0269 -8.95909,26.8773 2.40388,-6.6107 -6.1405,16.8864 -2.21198,6.0829 -4.09365,12.2809 -6.14049,18.4214 -0.51171,1.5352 -1.02341,3.0703 -1.53513,4.6054 -0.5117,1.5351 -1.21777,3.0186 -1.53512,4.6054 -0.20071,1.0035 0.32363,2.0993 0,3.0702 -1.89696,5.6909 -1.53512,-1.8712 -1.53512,3.0703"
         id="path1124"
         inkscape:connector-curvature="0" />
      <path
         style="fill:none;stroke:#000000;stroke-width:5.42748117;stroke-linecap:round;stroke-linejoin:round;stroke-opacity:1;stroke-miterlimit:4;stroke-dasharray:none"
         d="m -639.25449,3373.6019 c 2.55854,-0.5117 5.09263,-1.1661 7.67562,-1.5351 2.02625,-0.2895 4.09366,0 6.14049,0 3.07025,0 6.14049,0 9.21074,0 9.72245,0 19.44489,0 29.16735,0"
         id="path1126"
         inkscape:connector-curvature="0" />
      <path
         style="fill:none;stroke:#000000;stroke-width:5.42748117;stroke-linecap:round;stroke-linejoin:round;stroke-opacity:1;stroke-miterlimit:4;stroke-dasharray:none"
         d="m -587.0603,3372.0668 c 5.11708,4.6054 10.72034,8.7221 15.35124,13.8161 0.68843,0.7572 0,2.0468 0,3.0702 0,1.0234 0,2.0469 0,3.0703 0,6.1405 0,12.281 0,18.4215 0,2.0468 0,4.0936 0,6.1404 0,0.5118 -0.36183,1.1733 0,1.5352 0.36184,0.3618 1.02341,0 1.53513,0 0.5117,0 1.02341,0 1.53512,0"
         id="path1128"
         inkscape:connector-curvature="0" />
      <path
         style="fill:none;stroke:#000000;stroke-width:5.42748117;stroke-linecap:round;stroke-linejoin:round;stroke-opacity:1;stroke-miterlimit:4;stroke-dasharray:none"
         d="m -567.10369,3321.4077 1.53513,18.4215"
         id="path1130"
         inkscape:connector-curvature="0" />
      <path
         style="fill:none;stroke:#000000;stroke-width:5.42748117;stroke-linecap:round;stroke-linejoin:round;stroke-opacity:1;stroke-miterlimit:4;stroke-dasharray:none"
         d="m -568.63882,3418.1205 c 8.18732,-6.1405 17.09578,-11.4219 24.56198,-18.4215 1.11993,-1.0499 0,-3.0703 0,-4.6054 0,-1.5351 0,-3.0702 0,-4.6054 0,-3.5819 0,-7.1639 0,-10.7458 0,-1.0234 -0.38008,-2.12 0,-3.0703 0.26169,-0.6542 3.02471,-5.0867 4.60537,-6.1405 0.95204,-0.6347 2.11821,-0.9004 3.07024,-1.5351 1.20425,-0.8028 1.77572,-2.423 3.07025,-3.0702 0.46719,-0.2336 3.91402,0 4.60537,0 0.51172,0 1.17329,-0.3619 1.53513,0 0.80908,0.8091 0.90042,2.1182 1.53512,3.0702 1.20425,1.8064 3.40112,2.799 4.60537,4.6054 0.28385,0.4258 -0.22884,1.0774 0,1.5351 3.51283,7.0257 -0.63626,-6.5142 3.07025,4.6054 0.16182,0.4854 -0.22884,1.0774 0,1.5351 0.32363,0.6473 1.35961,0.8331 1.53512,1.5351 0.37233,1.4893 0,3.0703 0,4.6054 0,3.0702 0,6.1405 0,9.2107 0,2.0469 0,4.0937 0,6.1405 0,0.5117 0.36183,1.1733 0,1.5352 -0.36183,0.3618 -1.02341,0 -1.53512,0 -0.51171,0 -1.17329,0.3618 -1.53513,0 -0.36183,-0.3619 0,-1.0235 0,-1.5352 0,-4.6053 0,-9.2107 0,-13.8161 0,-1.5351 -0.30106,-3.1 0,-4.6053 0.46425,-2.3213 5.09233,-8.999 6.1405,-10.7459 0.58869,-0.9812 0.72604,-2.2612 1.53512,-3.0703 0.80909,-0.809 2.15487,-0.8486 3.07025,-1.5351 1.15786,-0.8684 1.86599,-2.2674 3.07024,-3.0702 0.42578,-0.2839 1.04968,0.1618 1.53513,0 1.0855,-0.3619 1.98476,-1.1733 3.07025,-1.5352 0.45588,-0.1519 7.36053,-0.1575 7.67561,0 1.87815,0.9391 1.9484,3.1096 3.07025,4.6054 0.8684,1.1579 2.26742,1.866 3.07025,3.0703 0.28384,0.4257 -0.12412,1.0387 0,1.5351 0.39246,1.5698 0.93415,3.1029 1.53512,4.6054 0.42495,1.0623 1.25761,1.9602 1.53512,3.0702 0.24822,0.9929 0,2.0468 0,3.0703 0,1.0234 0,2.0468 0,3.0702 0,3.0702 0,6.1405 0,9.2107 0,3.582 0,7.1639 0,10.7459 0,0.5117 0,1.0234 0,1.5351 0,0.5117 0.22884,1.0775 0,1.5352 -0.32363,0.6472 -1.02342,1.0234 -1.53512,1.5351 -0.5117,0.5117 -1.02342,1.0234 -1.53512,1.5351"
         id="path1132"
         inkscape:connector-curvature="0" />
      <path
         style="fill:none;stroke:#000000;stroke-width:5.42748117;stroke-linecap:round;stroke-linejoin:round;stroke-opacity:1;stroke-miterlimit:4;stroke-dasharray:none"
         d="m -458.10993,3388.9531 c 1.81439,-5.0612 5.20031,-0.71 7.67562,-1.5351 1.08549,-0.3618 1.98475,-1.1733 3.07025,-1.5351 1.38161,-0.4606 3.22376,0.4605 4.60537,0 1.08549,-0.3619 1.9602,-1.2576 3.07025,-1.5351 0.99286,-0.2483 2.07738,0.2482 3.07024,0 1.11005,-0.2776 1.94826,-1.3108 3.07025,-1.5352 1.50531,-0.301 3.09113,0.2524 4.60537,0 1.59614,-0.266 3.07025,-1.0234 4.60537,-1.5351 1.53511,-0.5117 3.10294,-0.9341 4.60536,-1.5351 1.06238,-0.425 1.98476,-1.1733 3.07025,-1.5351 4.5698,-1.5233 -3.14977,3.6349 4.60537,-1.5352 0.60213,-0.4014 0.88786,-1.2115 1.53512,-1.5351 0.45769,-0.2288 1.17329,0.3618 1.53513,0 0.36183,-0.3618 0,-1.0234 0,-1.5351 0,-0.5117 0,-1.0234 0,-1.5351 0,-0.5117 0.36183,-1.1733 0,-1.5352 -0.36184,-0.3618 -1.17329,0.3619 -1.53513,0 -0.36182,-0.3618 0.36184,-1.1732 0,-1.5351 -0.72365,-0.7236 -2.15487,0.4577 -3.07024,0 -4.51757,-2.2588 2.38295,-1.5351 -4.60536,-1.5351 -8.18734,0 -16.37466,0 -24.56198,0 -3.58196,0 -7.16391,0 -10.74587,0 -1.53512,0 -3.09113,-0.2524 -4.60537,0 -1.59615,0.266 -3.00923,1.2691 -4.60537,1.5351 -1.51424,0.2524 -3.18004,-0.5701 -4.60537,0 -1.34381,0.5375 -1.91239,2.2019 -3.07024,3.0703 -0.91538,0.6865 -2.15488,0.8486 -3.07025,1.5351 -1.15787,0.8684 -1.91238,2.2018 -3.07025,3.0702 -0.91537,0.6866 -2.26117,0.7261 -3.07025,1.5352 -0.80908,0.809 -1.02341,2.0468 -1.53512,3.0702 -0.5117,1.0234 -1.02342,2.0468 -1.53512,3.0703 -0.51171,1.0234 -1.25761,1.9602 -1.53513,3.0702 -0.24821,0.9929 0,2.0468 0,3.0702 0,1.0235 0,2.0469 0,3.0703 0,1.0234 -0.38009,2.12 0,3.0702 0.68522,1.7131 2.24514,2.9552 3.07025,4.6054 0.22884,0.4577 -0.36183,1.1733 0,1.5351 0.80908,0.8091 2.26116,0.7261 3.07025,1.5352 0.80907,0.809 0.8486,2.1548 1.53512,3.0702 2.57417,3.4322 6.80583,6.0996 10.74587,7.6756 3.00485,1.202 6.14049,2.0469 9.21074,3.0703 1.53512,0.5117 3.00922,1.2691 4.60537,1.5351 1.51423,0.2524 3.07024,0 4.60537,0 6.17527,0 3.03547,0 9.21074,0 7.67562,0 15.35122,0 23.02684,0"
         id="path1134"
         inkscape:connector-curvature="0" />
    </g>
  </g>
</svg>
